<svg xmlns="http://www.w3.org/2000/svg" viewBox="0 0 249.17 441"><defs><style>.cls-1,.cls-2{fill:none;stroke:#707070;}.cls-2{stroke-miterlimit:10;}</style></defs><g id="Camada_2" data-name="Camada 2"><g id="Camada_1-2" data-name="Camada 1"><g id="Grupo_17" data-name="Grupo 17"><g id="Grupo_16" data-name="Grupo 16"><g id="Retângulo_12" data-name="Retângulo 12"><path class="cls-1" d="M244.5,172.64V404A36.5,36.5,0,0,1,208,440.5H43A36.5,36.5,0,0,1,6.5,404V37A36.5,36.5,0,0,1,43,.5H208A36.5,36.5,0,0,1,244.5,37v67.29"/></g><g id="Retângulo_13" data-name="Retângulo 13"><rect class="cls-2" x="16" y="11" width="220" height="420" rx="28.91"/></g><g id="Retângulo_14" data-name="Retângulo 14"><path class="cls-1" d="M4.36,84.5h0A2.14,2.14,0,0,1,6.5,86.64h0v49.72a2.14,2.14,0,0,1-2.14,2.14h0A3.86,3.86,0,0,1,.5,134.64V88.36A3.86,3.86,0,0,1,4.36,84.5Z"/></g><g id="Retângulo_16" data-name="Retângulo 16"><path class="cls-1" d="M244.81,104.5h0a3.86,3.86,0,0,1,3.86,3.86v60.28a3.86,3.86,0,0,1-3.86,3.86h0a2.14,2.14,0,0,1-2.14-2.14V106.64A2.14,2.14,0,0,1,244.81,104.5Z"/></g><g id="Retângulo_15" data-name="Retângulo 15"><path class="cls-1" d="M4.36,152.5h0a2.14,2.14,0,0,1,2.14,2.14h0v49.72a2.14,2.14,0,0,1-2.14,2.14h0A3.86,3.86,0,0,1,.5,202.64V156.36A3.86,3.86,0,0,1,4.36,152.5Z"/></g><g id="Retângulo_16-2" data-name="Retângulo 16"><path class="cls-1" d="M244.81,104.5h0a3.86,3.86,0,0,1,3.86,3.86v60.28a3.86,3.86,0,0,1-3.86,3.86h0a2.14,2.14,0,0,1-2.14-2.14V106.64A2.14,2.14,0,0,1,244.81,104.5Z"/></g></g><g id="Retângulo_17" data-name="Retângulo 17"><path class="cls-1" d="M96,26.5h47a3.5,3.5,0,0,1,3.5,3.5h0a3.5,3.5,0,0,1-3.5,3.5H96A3.5,3.5,0,0,1,92.5,30h0A3.5,3.5,0,0,1,96,26.5Z"/></g><g id="Retângulo_19" data-name="Retângulo 19"><path class="cls-1" d="M78.31,415.94h92.42a1.43,1.43,0,0,1,1.43,1.43v0a1.43,1.43,0,0,1-1.43,1.43H78.31a1.42,1.42,0,0,1-1.42-1.42v0a1.42,1.42,0,0,1,1.42-1.42Z"/></g><g id="Retângulo_18" data-name="Retângulo 18"><path class="cls-1" d="M157,26.5h0a3.5,3.5,0,0,1,3.5,3.5h0a3.5,3.5,0,0,1-3.5,3.5h0a3.5,3.5,0,0,1-3.5-3.5h0A3.5,3.5,0,0,1,157,26.5Z"/></g></g></g></g></svg>