<svg xmlns="http://www.w3.org/2000/svg" viewBox="0 0 249.17 441"><defs><style>.cls-1{fill:#707070;}</style></defs><g id="Camada_2" data-name="Camada 2"><g id="Camada_1-2" data-name="Camada 1"><g id="Grupo_17" data-name="Grupo 17"><g id="Grupo_16" data-name="Grupo 16"><g id="Retângulo_12" data-name="Retângulo 12"><path class="cls-1" d="M208,441H43A37,37,0,0,1,6,404V37A37,37,0,0,1,43,0H208a37,37,0,0,1,37,37v67.29h-1V37A36,36,0,0,0,208,1H43A36,36,0,0,0,7,37V404a36,36,0,0,0,36,36H208a36,36,0,0,0,36-36V172.64h1V404A37,37,0,0,1,208,441Z"/></g><g id="Retângulo_13" data-name="Retângulo 13"><path class="cls-1" d="M207.09,431H44.91A28.94,28.94,0,0,1,16,402.09V39.91A28.94,28.94,0,0,1,44.91,11H207.09A28.94,28.94,0,0,1,236,39.91V402.09A28.94,28.94,0,0,1,207.09,431ZM44.91,12A27.94,27.94,0,0,0,17,39.91V402.09A27.94,27.94,0,0,0,44.91,430H207.09A27.94,27.94,0,0,0,235,402.09V39.91A27.94,27.94,0,0,0,207.09,12Z"/></g><g id="Retângulo_14" data-name="Retângulo 14"><path class="cls-1" d="M4.36,139A4.36,4.36,0,0,1,0,134.64V88.36A4.36,4.36,0,0,1,4.36,84,2.65,2.65,0,0,1,7,86.64v49.72A2.65,2.65,0,0,1,4.36,139Zm0-54A3.37,3.37,0,0,0,1,88.36v46.28A3.37,3.37,0,0,0,4.36,138,1.65,1.65,0,0,0,6,136.36V86.64A1.65,1.65,0,0,0,4.36,85Z"/></g><g id="Retângulo_16" data-name="Retângulo 16"><path class="cls-1" d="M244.81,173a2.64,2.64,0,0,1-2.64-2.64V106.64a2.64,2.64,0,0,1,2.64-2.64,4.36,4.36,0,0,1,4.36,4.36v60.28A4.36,4.36,0,0,1,244.81,173Zm0-68a1.65,1.65,0,0,0-1.64,1.64v63.72a1.65,1.65,0,0,0,1.64,1.64,3.37,3.37,0,0,0,3.36-3.36V108.36A3.37,3.37,0,0,0,244.81,105Z"/></g><g id="Retângulo_15" data-name="Retângulo 15"><path class="cls-1" d="M4.36,207A4.36,4.36,0,0,1,0,202.64V156.36A4.36,4.36,0,0,1,4.36,152,2.65,2.65,0,0,1,7,154.64v49.72A2.65,2.65,0,0,1,4.36,207Zm0-54A3.37,3.37,0,0,0,1,156.36v46.28A3.37,3.37,0,0,0,4.36,206,1.65,1.65,0,0,0,6,204.36V154.64A1.65,1.65,0,0,0,4.36,153Z"/></g><g id="Retângulo_16-2" data-name="Retângulo 16"><path class="cls-1" d="M244.81,173a2.64,2.64,0,0,1-2.64-2.64V106.64a2.64,2.64,0,0,1,2.64-2.64,4.36,4.36,0,0,1,4.36,4.36v60.28A4.36,4.36,0,0,1,244.81,173Zm0-68a1.65,1.65,0,0,0-1.64,1.64v63.72a1.65,1.65,0,0,0,1.64,1.64,3.37,3.37,0,0,0,3.36-3.36V108.36A3.37,3.37,0,0,0,244.81,105Z"/></g></g><g id="Retângulo_17" data-name="Retângulo 17"><path class="cls-1" d="M143,34H96a4,4,0,0,1,0-8h47a4,4,0,0,1,0,8ZM96,27a3,3,0,0,0,0,6h47a3,3,0,0,0,0-6Z"/></g><g id="Retângulo_19" data-name="Retângulo 19"><path class="cls-1" d="M170.73,419.3H78.31a1.93,1.93,0,1,1,0-3.85h92.42a1.93,1.93,0,0,1,0,3.85Zm-92.42-2.85a.93.93,0,1,0,0,1.85h92.42a.93.93,0,0,0,0-1.85Z"/></g><g id="Retângulo_18" data-name="Retângulo 18"><path class="cls-1" d="M157,34a4,4,0,1,1,4-4A4,4,0,0,1,157,34Zm0-7a3,3,0,1,0,3,3A3,3,0,0,0,157,27Z"/></g></g></g></g></svg>