<svg xmlns="http://www.w3.org/2000/svg" width="97" height="41" viewBox="0 0 97 41"><defs><style>.a{fill:#fff;}.b{isolation:isolate;}</style></defs><g transform="translate(-404.886 -1618.342)"><path d="M425.386,1618.342h56a20.5,20.5,0,0,1,20.5,20.5h0a20.5,20.5,0,0,1-20.5,20.5h-56a20.5,20.5,0,0,1-20.5-20.5h0A20.5,20.5,0,0,1,425.386,1618.342Z"/></g><g transform="translate(-404.886 -1618.342)"><circle class="a" cx="7.5" cy="7.5" r="7.5" transform="translate(418.886 1631.342)"/></g><g class="b" transform="translate(-404.886 -1618.342)"><g class="b"><path class="a" d="M447.16,1634.133a5.475,5.475,0,0,1,1.947,2.167,6.766,6.766,0,0,1,.715,3.145,6.923,6.923,0,0,1-.7,3.158,5.412,5.412,0,0,1-1.925,2.178,4.9,4.9,0,0,1-2.7.781,4.718,4.718,0,0,1-1.991-.429,5.255,5.255,0,0,1-1.551-1.045v.132a1.32,1.32,0,0,1-.374.957,1.263,1.263,0,0,1-.946.385,1.278,1.278,0,0,1-.946-.374,1.308,1.308,0,0,1-.374-.968V1630.4a1.314,1.314,0,0,1,.374-.956,1.355,1.355,0,0,1,1.892,0,1.318,1.318,0,0,1,.374.956v4.6a4.552,4.552,0,0,1,1.474-1.155,4.21,4.21,0,0,1,1.98-.495A5.029,5.029,0,0,1,447.16,1634.133Zm-.77,7.953a4.321,4.321,0,0,0,.011-5.27,2.908,2.908,0,0,0-2.321-1.045,2.938,2.938,0,0,0-2.332,1.045,3.881,3.881,0,0,0-.9,2.629,3.921,3.921,0,0,0,.9,2.641,3.079,3.079,0,0,0,4.642,0Z"/><path class="a" d="M454.5,1644.957a1.3,1.3,0,0,1-.956.385,1.237,1.237,0,0,1-.925-.385,1.32,1.32,0,0,1-.374-.957v-13.6a1.315,1.315,0,0,1,1.342-1.341,1.234,1.234,0,0,1,.924.385,1.318,1.318,0,0,1,.374.956V1644A1.3,1.3,0,0,1,454.5,1644.957Z"/><path class="a" d="M468.257,1642.625a5.593,5.593,0,0,1-2.167,2.167,6.348,6.348,0,0,1-6.061,0,5.61,5.61,0,0,1-2.155-2.167,6.688,6.688,0,0,1,0-6.314,5.686,5.686,0,0,1,2.155-2.178,6.27,6.27,0,0,1,6.061,0,5.668,5.668,0,0,1,2.167,2.178,6.688,6.688,0,0,1,0,6.314Zm-2.3-5.082a3.333,3.333,0,0,0-1.209-1.31,3.3,3.3,0,0,0-3.367,0,3.335,3.335,0,0,0-1.21,1.31,4.037,4.037,0,0,0-.45,1.925,3.975,3.975,0,0,0,.45,1.914,3.343,3.343,0,0,0,1.21,1.3,3.3,3.3,0,0,0,3.367,0,3.34,3.34,0,0,0,1.209-1.3,3.965,3.965,0,0,0,.452-1.914A4.026,4.026,0,0,0,465.958,1637.543Z"/><path class="a" d="M481.941,1633.726a1.311,1.311,0,0,1,.374.967v9.79a4.708,4.708,0,0,1-1.661,3.972,6.673,6.673,0,0,1-4.213,1.287,10.321,10.321,0,0,1-1.815-.221,7.955,7.955,0,0,1-1.639-.439c-.718-.309-1.078-.733-1.078-1.276a1.129,1.129,0,0,1,.066-.352,1.358,1.358,0,0,1,.451-.737,1.092,1.092,0,0,1,.693-.253,1.283,1.283,0,0,1,.418.066q.089.021,1.089.407a5.124,5.124,0,0,0,1.815.385,3.827,3.827,0,0,0,2.432-.649,2.228,2.228,0,0,0,.8-1.837v-1.056a4.374,4.374,0,0,1-1.463,1.232,4.225,4.225,0,0,1-2.1.55,5.229,5.229,0,0,1-2.8-.781,5.469,5.469,0,0,1-1.991-2.167,6.691,6.691,0,0,1-.726-3.146,6.837,6.837,0,0,1,.715-3.157,5.434,5.434,0,0,1,1.958-2.178,5.082,5.082,0,0,1,2.761-.781,4.8,4.8,0,0,1,2.09.461,4.924,4.924,0,0,1,1.562,1.123v-.243a1.323,1.323,0,0,1,.374-.957,1.265,1.265,0,0,1,.946-.384A1.284,1.284,0,0,1,481.941,1633.726Zm-3.091,8.371a3.8,3.8,0,0,0,.935-2.629,3.833,3.833,0,0,0-.935-2.64,3.07,3.07,0,0,0-2.409-1.057,3.038,3.038,0,0,0-2.4,1.057,3.864,3.864,0,0,0-.924,2.64,3.826,3.826,0,0,0,.924,2.629,3.05,3.05,0,0,0,2.4,1.045A3.083,3.083,0,0,0,478.85,1642.1Z"/></g></g></svg>