<svg xmlns="http://www.w3.org/2000/svg" width="40" height="41" viewBox="0 0 40 41"><defs><style>.a{fill:#fff;}</style></defs><g transform="translate(-568.886 -1618.342)"><ellipse cx="20" cy="20.5" rx="20" ry="20.5" transform="translate(568.886 1618.342)"/></g><g transform="translate(-568.886 -1618.342)"><path class="a" d="M594.091,1626.173H583.148a6.747,6.747,0,0,0-6.739,6.74v10.943a6.746,6.746,0,0,0,6.739,6.74h10.943a6.746,6.746,0,0,0,6.74-6.74v-10.943A6.748,6.748,0,0,0,594.091,1626.173Zm4.573,17.683a4.578,4.578,0,0,1-4.573,4.573H583.148a4.577,4.577,0,0,1-4.573-4.573v-10.943a4.578,4.578,0,0,1,4.573-4.573h10.943a4.579,4.579,0,0,1,4.573,4.573Z"/><path class="a" d="M588.62,1632.091a6.293,6.293,0,1,0,6.293,6.293h0A6.3,6.3,0,0,0,588.62,1632.091Zm0,10.419a4.126,4.126,0,1,1,4.126-4.126h0A4.131,4.131,0,0,1,588.62,1642.51Z"/><path class="a" d="M595.177,1630.254a1.587,1.587,0,1,0,1.124.465A1.589,1.589,0,0,0,595.177,1630.254Z"/></g></svg>