<svg xmlns="http://www.w3.org/2000/svg" width="40" height="41" viewBox="0 0 40 41"><defs><style>.a{fill:#fff;}</style></defs><g transform="translate(-620.886 -1618.342)"><ellipse cx="20" cy="20.5" rx="20" ry="20.5" transform="translate(620.886 1618.342)"/></g><g transform="translate(-620.886 -1618.342)"><path class="a" d="M652.847,1639.286v7.827h-4.538v-7.3c0-1.835-.656-3.087-2.3-3.087a2.484,2.484,0,0,0-2.328,1.66,3.1,3.1,0,0,0-.151,1.106v7.623h-4.538s.061-12.369,0-13.651h4.539v1.935l-.03.044h.03v-.044a4.508,4.508,0,0,1,4.091-2.256C650.608,1633.142,652.847,1635.093,652.847,1639.286Zm-18.6-12.4a2.365,2.365,0,1,0-.391,4.714,2.285,2.285,0,0,0,.331,0h.03a2.366,2.366,0,1,0,.392-4.715A2.437,2.437,0,0,0,634.247,1626.886Zm-2.3,20.227h4.537v-13.651h-4.537Z"/></g></svg>