<svg xmlns="http://www.w3.org/2000/svg" width="20.672" height="16.834" viewBox="0 0 20.672 16.834"><defs><style>.a{fill:#777;}</style></defs><g transform="translate(-522.599 -1561.604)"><path class="a" d="M540.606,1578.438h-15.34a2.68,2.68,0,0,1-2.667-2.659v-11.508a2.682,2.682,0,0,1,2.664-2.667H540.6a2.682,2.682,0,0,1,2.667,2.666v11.5A2.678,2.678,0,0,1,540.606,1578.438Zm-15.34-15.334a1.177,1.177,0,0,0-1.167,1.169v11.5a1.174,1.174,0,0,0,1.169,1.163H540.6a1.174,1.174,0,0,0,1.167-1.168v-11.5a1.176,1.176,0,0,0-1.17-1.167Z"/><path class="a" d="M532.935,1571.731a.747.747,0,0,1-.431-.135l-9.586-6.71a.75.75,0,0,1,.861-1.229l9.156,6.409,9.156-6.409a.75.75,0,0,1,.859,1.229l-9.585,6.71A.746.746,0,0,1,532.935,1571.731Z"/></g></svg>