<svg xmlns="http://www.w3.org/2000/svg" width="19.699" height="19.699" viewBox="0 0 19.699 19.699"><defs><style>.a{fill:#777;}</style></defs><path class="a" d="M14.362,11.8c-.247-.123-1.45-.712-1.674-.793s-.388-.123-.552.123-.633.791-.775.954-.286.172-.53.062a6.661,6.661,0,0,1-1.972-1.219A7.447,7.447,0,0,1,7.5,9.232c-.143-.246-.016-.382.107-.5s.247-.283.37-.429a2.081,2.081,0,0,0,.244-.407.451.451,0,0,0-.021-.43c-.062-.123-.552-1.33-.757-1.811s-.4-.419-.552-.419-.3-.012-.469-.012a.925.925,0,0,0-.654.295,2.74,2.74,0,0,0-.858,2.031,4.8,4.8,0,0,0,1,2.524,10.944,10.944,0,0,0,4.186,3.681c.586.246,1.042.394,1.4.516a3.4,3.4,0,0,0,1.543.1A2.526,2.526,0,0,0,14.69,13.2a2.032,2.032,0,0,0,.148-1.17c-.061-.111-.222-.172-.468-.283M9.9,17.852H9.886a8.211,8.211,0,0,1-4.149-1.133l-.3-.176-3.078.8.825-2.992-.2-.308A8.141,8.141,0,0,1,15.671,4a8.034,8.034,0,0,1,2.388,5.737A8.151,8.151,0,0,1,9.9,17.853M16.842,2.831A9.966,9.966,0,0,0,9.886,0,9.759,9.759,0,0,0,1.392,14.641L0,19.7l5.2-1.356A9.9,9.9,0,0,0,9.886,19.53h0A9.8,9.8,0,0,0,19.7,9.766a9.68,9.68,0,0,0-2.869-6.9" transform="translate(0 0)"/></svg>