<svg xmlns="http://www.w3.org/2000/svg" viewBox="0 0 31.46 37.44"><defs><style>.cls-1{fill:#373737;}</style></defs><g id="Camada_2" data-name="Camada 2"><g id="Camada_1-2" data-name="Camada 1"><path id="Icon_awesome-apple" data-name="Icon awesome-apple" class="cls-1" d="M26.3,19.78a7.82,7.82,0,0,1,4.18-7.08A8.93,8.93,0,0,0,23.4,9c-3-.23-6.21,1.73-7.39,1.73S11.88,9.05,9.62,9.05C5,9.13,0,12.77,0,20.18A21,21,0,0,0,1.2,27c1.07,3.07,4.93,10.58,9,10.45,2.11,0,3.6-1.49,6.34-1.49s4,1.49,6.38,1.49c4.07,0,7.56-6.89,8.58-10a8.29,8.29,0,0,1-5.16-7.68ZM21.57,6.06a7.89,7.89,0,0,0,2-6.06A8.84,8.84,0,0,0,17.9,2.92a8,8,0,0,0-2.14,6A7,7,0,0,0,21.57,6.06Z"/></g></g></svg>