<svg xmlns="http://www.w3.org/2000/svg" viewBox="0 0 88 38"><defs><style>.cls-1{fill:#8f8f8f;}</style></defs><g id="Camada_2" data-name="Camada 2"><g id="Camada_1-2" data-name="Camada 1"><path class="cls-1" d="M54.8,17.55a2.7,2.7,0,0,0-2.76,0,2.77,2.77,0,0,0-1,1.07,3.38,3.38,0,0,0-.37,1.58,3.33,3.33,0,0,0,.37,1.56,2.74,2.74,0,0,0,1,1.06,2.7,2.7,0,0,0,2.76,0,2.74,2.74,0,0,0,1-1.06,3.33,3.33,0,0,0,.37-1.56,3.38,3.38,0,0,0-.37-1.58A2.77,2.77,0,0,0,54.8,17.55Z"/><path class="cls-1" d="M69,0H19a19,19,0,0,0,0,38H69A19,19,0,0,0,69,0ZM22,26a6,6,0,1,1,6-6A6,6,0,0,1,22,26Zm20-3.24a4.42,4.42,0,0,1-1.58,1.78,4,4,0,0,1-2.2.64,3.91,3.91,0,0,1-1.63-.35A4.24,4.24,0,0,1,35.33,24v.11a1.06,1.06,0,0,1-.31.79,1.11,1.11,0,0,1-1.54,0,1,1,0,0,1-.31-.79V12.78a1.06,1.06,0,0,1,.31-.78A1.09,1.09,0,0,1,35,12a1.06,1.06,0,0,1,.31.78v3.76a3.71,3.71,0,0,1,1.21-.94,3.42,3.42,0,0,1,1.62-.41,4.12,4.12,0,0,1,2.25.64A4.55,4.55,0,0,1,42,17.6a5.57,5.57,0,0,1,.58,2.58A5.69,5.69,0,0,1,42,22.76Zm4.71,1.14a1.08,1.08,0,0,1-.31.79,1.06,1.06,0,0,1-.78.31,1,1,0,0,1-.76-.31,1.12,1.12,0,0,1-.31-.79V12.78a1.09,1.09,0,0,1,1.1-1.1,1,1,0,0,1,.76.32,1.09,1.09,0,0,1,.3.78Zm11-1.12a4.59,4.59,0,0,1-1.78,1.77,5.18,5.18,0,0,1-5,0,4.56,4.56,0,0,1-1.77-1.77,5.47,5.47,0,0,1,0-5.17,4.66,4.66,0,0,1,1.77-1.78,5.11,5.11,0,0,1,5,0,4.68,4.68,0,0,1,1.78,1.78,5.47,5.47,0,0,1,0,5.17Zm11.5,1.52a3.85,3.85,0,0,1-1.36,3.25,5.47,5.47,0,0,1-3.45,1.05,8.41,8.41,0,0,1-1.48-.18,6.45,6.45,0,0,1-1.34-.36c-.59-.25-.88-.6-.88-1a.8.8,0,0,1,.05-.29,1,1,0,0,1,.37-.6.87.87,0,0,1,.57-.21A1.27,1.27,0,0,1,62,26l.89.34a4.18,4.18,0,0,0,1.48.31,3.15,3.15,0,0,0,2-.53,1.8,1.8,0,0,0,.66-1.5v-.87a3.53,3.53,0,0,1-1.2,1,3.42,3.42,0,0,1-1.72.45,4.23,4.23,0,0,1-2.29-.64,4.43,4.43,0,0,1-1.63-1.77,5.41,5.41,0,0,1-.59-2.57,5.61,5.61,0,0,1,.58-2.59,4.46,4.46,0,0,1,1.6-1.78A4.13,4.13,0,0,1,64,15.19a4.14,4.14,0,0,1,3,1.3v-.2a1.06,1.06,0,0,1,.31-.78,1.08,1.08,0,0,1,1.85.78Z"/><path class="cls-1" d="M37.89,17.17A2.41,2.41,0,0,0,36,18a3.17,3.17,0,0,0-.74,2.15A3.24,3.24,0,0,0,36,22.34a2.53,2.53,0,0,0,3.8,0,3.23,3.23,0,0,0,.73-2.16A3.17,3.17,0,0,0,39.78,18,2.36,2.36,0,0,0,37.89,17.17Z"/><path class="cls-1" d="M64.36,17.17a2.51,2.51,0,0,0-2,.86,3.2,3.2,0,0,0-.75,2.17,3.15,3.15,0,0,0,.75,2.15,2.5,2.5,0,0,0,2,.85,2.54,2.54,0,0,0,2-.85,3.11,3.11,0,0,0,.76-2.15A3.16,3.16,0,0,0,66.34,18,2.55,2.55,0,0,0,64.36,17.17Z"/></g></g></svg>