<svg xmlns="http://www.w3.org/2000/svg" viewBox="0 0 9.94 16.97"><defs><style>.cls-1{isolation:isolate;}.cls-2{fill:#777;}</style></defs><g id="Camada_2" data-name="Camada 2"><g id="Camada_1-2" data-name="Camada 1"><g id="_" data-name=" " class="cls-1"><g class="cls-1"><path class="cls-2" d="M3.46,8.72a1,1,0,0,1,.77-.33,4,4,0,0,0,2.52-.86,2.87,2.87,0,0,0,1-2.33A2.9,2.9,0,0,0,6.83,3a3.08,3.08,0,0,0-2.21-.86,3.29,3.29,0,0,0-1.41.31A4,4,0,0,0,2,3.31a1.36,1.36,0,0,1-.92.42,1,1,0,0,1-.59-.21A1.05,1.05,0,0,1,0,2.67a1,1,0,0,1,.34-.76A5.49,5.49,0,0,1,2.24.51,5.69,5.69,0,0,1,4.62,0,5.39,5.39,0,0,1,7.3.67,5,5,0,0,1,9.22,2.52,5.05,5.05,0,0,1,9.94,5.2a5,5,0,0,1-.61,2.45A4.83,4.83,0,0,1,7.66,9.37a5.65,5.65,0,0,1-2.39.8h0v1.51a1.09,1.09,0,0,1-.31.79,1,1,0,0,1-.77.32,1.05,1.05,0,0,1-.79-.32,1,1,0,0,1-.29-.79V9.52A1.09,1.09,0,0,1,3.46,8.72Zm-.15,7.94A1.17,1.17,0,0,1,3,15.8v-.44a1.2,1.2,0,0,1,.3-.86,1.11,1.11,0,0,1,.85-.31h.23a1.11,1.11,0,0,1,.85.31,1.2,1.2,0,0,1,.3.86v.44a1.17,1.17,0,0,1-.3.86,1.11,1.11,0,0,1-.85.31H4.16A1.11,1.11,0,0,1,3.31,16.66Z"/></g></g></g></g></svg>