<svg xmlns="http://www.w3.org/2000/svg" viewBox="0 0 17.21 14.13"><defs><style>.cls-1{fill:#777;}</style></defs><g id="Camada_2" data-name="Camada 2"><g id="Camada_1-2" data-name="Camada 1"><path class="cls-1" d="M14.77,0H2.44A2.45,2.45,0,0,0,0,2.44v9.25a2.45,2.45,0,0,0,2.44,2.44H14.78a2.44,2.44,0,0,0,2.43-2.44V2.44A2.44,2.44,0,0,0,14.77,0ZM2.44,1.8H14.77a.64.64,0,0,1,.51.27L8.61,6.74,1.94,2.07A.61.61,0,0,1,2.44,1.8ZM14.77,12.33H2.44a.64.64,0,0,1-.64-.64V4.17l6.29,4.4a.92.92,0,0,0,.52.17.87.87,0,0,0,.51-.17l6.29-4.4v7.52A.64.64,0,0,1,14.77,12.33Z"/></g></g></svg>