<svg xmlns="http://www.w3.org/2000/svg" viewBox="0 0 36 37"><defs><style>.cls-1{fill:#8f8f8f;}</style></defs><g id="Camada_2" data-name="Camada 2"><g id="Camada_1-2" data-name="Camada 1"><path class="cls-1" d="M23.05,9.47H13.19a4.12,4.12,0,0,0-4.12,4.12v9.86a4.12,4.12,0,0,0,4.12,4.12h9.86a4.11,4.11,0,0,0,4.12-4.12V13.59A4.11,4.11,0,0,0,23.05,9.47ZM18.12,24.19a5.67,5.67,0,1,1,5.67-5.67A5.67,5.67,0,0,1,18.12,24.19ZM24,14.05a1.41,1.41,0,0,1-1.43-1.42A1.43,1.43,0,1,1,24,14.05Z"/><path class="cls-1" d="M18,0A18.25,18.25,0,0,0,0,18.5,18.25,18.25,0,0,0,18,37,18.25,18.25,0,0,0,36,18.5,18.25,18.25,0,0,0,18,0ZM29.13,23.45a6.1,6.1,0,0,1-6.08,6.08H13.19a6.09,6.09,0,0,1-6.07-6.08V13.59a6.07,6.07,0,0,1,6.07-6.07h9.86a6.08,6.08,0,0,1,6.08,6.07Z"/><path class="cls-1" d="M18.12,14.8a3.72,3.72,0,1,0,3.72,3.72h0A3.72,3.72,0,0,0,18.12,14.8Z"/></g></g></svg>