<svg xmlns="http://www.w3.org/2000/svg" viewBox="0 0 36 37"><defs><style>.cls-1{fill:#8f8f8f;}</style></defs><g id="Camada_2" data-name="Camada 2"><g id="Camada_1-2" data-name="Camada 1"><path class="cls-1" d="M18,0A18.25,18.25,0,0,0,0,18.5,18.25,18.25,0,0,0,18,37,18.25,18.25,0,0,0,36,18.5,18.25,18.25,0,0,0,18,0ZM14.26,26.39H10.17V14.09h4.09Zm-2-14h-.34a2.13,2.13,0,1,1,.37-4.24h.34a2.13,2.13,0,1,1-.37,4.25Zm16.8,14H24.92V19.81c0-1.66-.6-2.79-2.08-2.79a2.26,2.26,0,0,0-2.1,1.5,2.87,2.87,0,0,0-.13,1V26.4H16.52s.05-11.15,0-12.3h4.09v1.74a4,4,0,0,1,3.69-2C27,13.8,29,15.55,29,19.33Z"/><path class="cls-1" d="M20.61,15.88v0l0,0Z"/></g></g></svg>