<svg xmlns="http://www.w3.org/2000/svg" viewBox="0 0 18.56 18.57"><defs><style>.cls-1{fill:#777;}</style></defs><g id="Camada_2" data-name="Camada 2"><g id="Camada_1-2" data-name="Camada 1"><g id="Icon_simple-whatsapp" data-name="Icon simple-whatsapp"><path class="cls-1" d="M13.54,11.13c-.23-.12-1.37-.67-1.58-.75s-.36-.11-.52.12-.6.74-.73.9-.27.16-.5.06a6.5,6.5,0,0,1-1.86-1.15A6.88,6.88,0,0,1,7.07,8.7c-.14-.23,0-.36.1-.48a4.73,4.73,0,0,0,.34-.4,1.33,1.33,0,0,0,.23-.38.41.41,0,0,0,0-.4C7.67,6.92,7.21,5.78,7,5.33s-.37-.4-.52-.4H6.05a.92.92,0,0,0-.62.28,2.61,2.61,0,0,0-.81,1.91,4.49,4.49,0,0,0,1,2.38A10.22,10.22,0,0,0,9.51,13c.56.24,1,.37,1.32.49a3.13,3.13,0,0,0,1.46.09,2.38,2.38,0,0,0,1.56-1.1,2,2,0,0,0,.14-1.1c-.06-.1-.21-.16-.44-.26M9.33,16.83h0a7.66,7.66,0,0,1-3.91-1.07l-.28-.16-2.9.75L3,13.53l-.19-.29a7.68,7.68,0,0,1,12-9.47A7.55,7.55,0,0,1,17,9.18a7.68,7.68,0,0,1-7.68,7.65M15.88,2.67A9.41,9.41,0,0,0,9.32,0a9.2,9.2,0,0,0-8,13.8L0,18.57l4.9-1.28a9.24,9.24,0,0,0,4.42,1.12h0a9.22,9.22,0,0,0,9.24-9.2,9.09,9.09,0,0,0-2.7-6.51"/></g></g></g></svg>