<svg xmlns="http://www.w3.org/2000/svg" viewBox="0 0 113.28 92.36"><defs><style>.cls-1{isolation:isolate;}.cls-2{fill:#b5b5b5;}.cls-3{fill:#0ef500;}</style></defs><g id="Camada_2" data-name="Camada 2"><g id="Camada_1-2" data-name="Camada 1"><g id="Grupo_52" data-name="Grupo 52"><g id="Grupo_20" data-name="Grupo 20"><g id="_10" data-name=" 10" class="cls-1"><g class="cls-1"><path class="cls-2" d="M0,12.64a2.16,2.16,0,0,1,.77-1.8l9.81-8.78a4,4,0,0,1,2.84-1H24a1,1,0,0,1,1,1V90.3c0,.77-.39,1-1,1H12.38a1,1,0,0,1-1-1v-72L1.29,27.22A.72.72,0,0,1,0,26.83Z"/><path class="cls-2" d="M54.31,92.36c-13.42,0-19.61-9.16-19.61-20V20c0-10.83,6.58-20,19.61-20,13.8,0,19.61,8.38,19.61,20V72.37C73.92,83.2,67.72,92.36,54.31,92.36Zm-5.94-20c0,3.35,1,7.61,5.94,7.61,5.29,0,5.93-4.26,5.93-7.61V20c0-3.35-1.29-7.61-5.93-7.61-5.29,0-5.94,5.16-5.94,7.61Z"/></g></g><g id="gb" class="cls-1"><g class="cls-1"><path class="cls-2" d="M93.42,86.22c1.28,0,1.43-1,1.43-1.86V79.74H93.73a.22.22,0,0,1-.24-.25v-2.6a.24.24,0,0,1,.24-.25h4.16a.23.23,0,0,1,.25.25v7.75c0,2.6-1.49,4.8-4.72,4.8s-4.71-2.2-4.71-4.8V72.05a4.48,4.48,0,0,1,4.71-4.81c3.32,0,4.72,2,4.72,4.81v1.18c0,.15-.1.22-.25.22H95.1a.22.22,0,0,1-.25-.22v-.9c0-.81-.31-1.86-1.43-1.86S92,71.74,92,72.33v12C92,85.17,92.25,86.22,93.42,86.22Z"/><path class="cls-2" d="M109.86,72.64v2.11a3.76,3.76,0,0,1-1.49,3.38c1.14.68,1.49,1.89,1.49,3.47v2.6c0,2.61-1.34,5-5.09,5h-4.12a.24.24,0,0,1-.25-.25V67.74a.23.23,0,0,1,.25-.25h4.09C108.43,67.49,109.86,69.42,109.86,72.64Zm-6.17-2v6h1.08c1.67,0,1.8-1.18,1.8-2V72.76c0-1-.22-2.17-1.83-2.17Zm0,9.15V86.1h1.08c1.67,0,1.8-1.24,1.8-2V81.82c0-1-.44-2.08-1.8-2.08Z"/></g></g></g><path class="cls-3" d="M99.83,37.2a1.51,1.51,0,0,0,1.06-.44,1.49,1.49,0,0,0,0-2.12l-5.52-5.48a1.5,1.5,0,0,0-2.11,0l-5.52,5.48a1.5,1.5,0,0,0,2.11,2.13L92.65,34V47.57a1.5,1.5,0,0,0,3,0V33.66l3.12,3.11A1.5,1.5,0,0,0,99.83,37.2Z"/><path class="cls-3" d="M112.84,47a1.5,1.5,0,0,0-2.12,0l-2.8,2.78V36.15a1.5,1.5,0,1,0-3,0V50.06L101.8,47a1.5,1.5,0,0,0-2.12,2.13l5.52,5.48a1.52,1.52,0,0,0,1.06.43,1.5,1.5,0,0,0,1.06-.43l5.52-5.48A1.51,1.51,0,0,0,112.84,47Z"/></g></g></g></svg>