<svg xmlns="http://www.w3.org/2000/svg" viewBox="0 0 129.63 92.36"><defs><style>.cls-1{isolation:isolate;}.cls-2{fill:#b5b5b5;}.cls-3{fill:#0ef500;}</style></defs><g id="Camada_2" data-name="Camada 2"><g id="Camada_1-2" data-name="Camada 1"><g id="Grupo_52" data-name="Grupo 52"><g id="Grupo_20" data-name="Grupo 20"><g id="_20" data-name=" 20" class="cls-1"><g class="cls-1"><path class="cls-2" d="M1,20.64c-.64,0-1-.26-1-1C.39,8.64,7.35,0,20.38,0,33.8,0,40,9,40,19.09v.78a22,22,0,0,1-2.19,8.9L14.19,78.43H38.31a.92.92,0,0,1,.91,1V90.3c0,.77-.39,1-.91,1H1a1,1,0,0,1-1-1V80a6.19,6.19,0,0,1,.9-3.36L25.15,25.93A13.55,13.55,0,0,0,26.32,21v-.91c0-2.83-1.29-7.22-5.94-7.22s-6.45,3.48-6.71,6.71c0,.77-.38,1-1,1Z"/><path class="cls-2" d="M64.76,92.36c-13.42,0-19.61-9.16-19.61-20V20c0-10.83,6.58-20,19.61-20,13.8,0,19.6,8.38,19.6,20V72.37C84.36,83.2,78.17,92.36,64.76,92.36Zm-5.94-20c0,3.35,1,7.61,5.94,7.61,5.28,0,5.93-4.26,5.93-7.61V20c0-3.35-1.29-7.61-5.93-7.61-5.29,0-5.94,5.16-5.94,7.61Z"/></g></g><g id="gb" class="cls-1"><g class="cls-1"><path class="cls-2" d="M109.78,88.22c1.27,0,1.43-1,1.43-1.86V81.74h-1.12a.23.23,0,0,1-.25-.25v-2.6a.24.24,0,0,1,.25-.25h4.15a.23.23,0,0,1,.25.25v7.75c0,2.6-1.49,4.81-4.71,4.81s-4.71-2.21-4.71-4.81V74.05a4.47,4.47,0,0,1,4.71-4.8c3.32,0,4.71,2,4.71,4.8v1.18c0,.15-.09.22-.25.22h-2.79a.22.22,0,0,1-.24-.22v-.9c0-.81-.31-1.86-1.43-1.86s-1.43,1.27-1.43,1.86v12C108.35,87.17,108.6,88.22,109.78,88.22Z"/><path class="cls-2" d="M126.21,74.64v2.11a3.76,3.76,0,0,1-1.49,3.38c1.15.68,1.49,1.89,1.49,3.47v2.61c0,2.6-1.33,5-5.09,5H117a.25.25,0,0,1-.25-.25V69.74a.24.24,0,0,1,.25-.25h4.09C124.78,69.49,126.21,71.42,126.21,74.64Zm-6.17-2v6h1.08c1.68,0,1.8-1.18,1.8-2v-1.9c0-1-.21-2.17-1.83-2.17Zm0,9.15V88.1h1.08c1.68,0,1.8-1.24,1.8-2V83.82c0-1-.43-2.08-1.8-2.08Z"/></g></g></g><path class="cls-3" d="M116.18,39.2a1.5,1.5,0,0,0,1.06-2.56l-5.52-5.48a1.5,1.5,0,0,0-2.11,0l-5.52,5.48a1.5,1.5,0,0,0,2.11,2.13L109,36V49.57a1.5,1.5,0,0,0,3,0V35.66l3.13,3.11A1.48,1.48,0,0,0,116.18,39.2Z"/><path class="cls-3" d="M129.2,49a1.5,1.5,0,0,0-2.12,0l-2.8,2.78V38.16a1.5,1.5,0,0,0-3,0v13.9L118.15,49A1.5,1.5,0,1,0,116,51.09l5.52,5.48a1.51,1.51,0,0,0,2.11,0l5.52-5.48A1.51,1.51,0,0,0,129.2,49Z"/></g></g></g></svg>