<svg xmlns="http://www.w3.org/2000/svg" viewBox="0 0 125.14 92.36"><defs><style>.cls-1{isolation:isolate;}.cls-2{fill:#b5b5b5;}.cls-3{fill:#0ef500;}</style></defs><g id="Camada_2" data-name="Camada 2"><g id="Camada_1-2" data-name="Camada 1"><g id="Grupo_52" data-name="Grupo 52"><g id="Grupo_20" data-name="Grupo 20"><g id="_30" data-name=" 30" class="cls-1"><g class="cls-1"><path class="cls-2" d="M1,71.72H12.64a.94.94,0,0,1,1,1c.13,3.1,1.42,6.71,5.94,6.71,5.54,0,5.93-5.29,5.93-8.51V60.5c0-3.87-1.42-8.51-6.71-8.51H16a1,1,0,0,1-1-1V40.12a1,1,0,0,1,1-1h2.83c6.32,0,6.71-4.65,6.71-7.87V21.93c0-3.87-.77-8.9-5.93-8.9-3.74,0-5.68,3.09-5.94,6.58a.94.94,0,0,1-1,1H1c-.64,0-1-.26-1-1C.39,8.38,7.22,0,19.61,0,32.38,0,39.22,9,39.22,21.28V29c0,7.49-1.94,12.65-5.29,16.26,3.87,4.13,5.29,9,5.29,16.77v9.54c0,10.19-6.2,20.77-19.61,20.77C3.87,92.36.26,82.43,0,72.75,0,72,.39,71.72,1,71.72Z"/><path class="cls-2" d="M65.92,92.36c-13.42,0-19.61-9.16-19.61-20V20c0-10.83,6.58-20,19.61-20,13.8,0,19.6,8.38,19.6,20V72.37C85.52,83.2,79.33,92.36,65.92,92.36ZM60,72.37C60,75.72,61,80,65.92,80c5.29,0,5.93-4.26,5.93-7.61V20c0-3.35-1.29-7.61-5.93-7.61C60.63,12.38,60,17.54,60,20Z"/></g></g><g id="gb" class="cls-1"><g class="cls-1"><path class="cls-2" d="M105.28,84.22c1.27,0,1.43-1,1.43-1.86V77.74h-1.12a.23.23,0,0,1-.25-.25v-2.6a.25.25,0,0,1,.25-.25h4.15a.23.23,0,0,1,.25.25v7.75c0,2.6-1.49,4.8-4.71,4.8s-4.71-2.2-4.71-4.8V70.05a4.48,4.48,0,0,1,4.71-4.81c3.32,0,4.71,2,4.71,4.81v1.18c0,.15-.09.22-.25.22H107a.22.22,0,0,1-.24-.22v-.9c0-.81-.31-1.86-1.43-1.86s-1.43,1.27-1.43,1.86v12C103.85,83.17,104.1,84.22,105.28,84.22Z"/><path class="cls-2" d="M121.71,70.64v2.11a3.76,3.76,0,0,1-1.49,3.38c1.15.68,1.49,1.89,1.49,3.47v2.6c0,2.61-1.33,5-5.08,5H112.5a.25.25,0,0,1-.25-.25V65.74a.24.24,0,0,1,.25-.25h4.09C120.28,65.49,121.71,67.42,121.71,70.64Zm-6.17-2v6h1.09c1.67,0,1.79-1.18,1.79-2V70.76c0-1-.21-2.17-1.83-2.17Zm0,9.15V84.1h1.09c1.67,0,1.79-1.24,1.79-2V79.82c0-1-.43-2.08-1.79-2.08Z"/></g></g></g><path class="cls-3" d="M111.68,35.2a1.53,1.53,0,0,0,1.07-.44,1.5,1.5,0,0,0,0-2.12l-5.52-5.48a1.5,1.5,0,0,0-2.11,0l-5.52,5.48a1.5,1.5,0,0,0,2.11,2.13L104.5,32V45.57a1.5,1.5,0,0,0,3,0V31.66l3.13,3.11A1.48,1.48,0,0,0,111.68,35.2Z"/><path class="cls-3" d="M124.7,45a1.5,1.5,0,0,0-2.12,0l-2.81,2.78V34.15a1.5,1.5,0,1,0-3,0V48.06L113.65,45a1.5,1.5,0,1,0-2.11,2.13l5.52,5.48a1.51,1.51,0,0,0,2.11,0l5.52-5.48A1.51,1.51,0,0,0,124.7,45Z"/></g></g></g></svg>