<svg xmlns="http://www.w3.org/2000/svg" viewBox="0 0 81.7 91.33"><defs><style>.cls-1{isolation:isolate;}.cls-2{fill:#b5b5b5;}.cls-3{fill:#0ef500;}</style></defs><g id="Camada_2" data-name="Camada 2"><g id="Camada_1-2" data-name="Camada 1"><g id="Grupo_52" data-name="Grupo 52"><g id="Grupo_20" data-name="Grupo 20"><g id="_5" data-name=" 5" class="cls-1"><g class="cls-1"><path class="cls-2" d="M0,66.43a1,1,0,0,1,1-1H12.64a1,1,0,0,1,1,1v4.26c0,3.35,1.29,7.74,5.94,7.74,5.29,0,5.93-5.29,5.93-7.74V55.47c0-3.35-.9-7.74-5.93-7.74H1a1,1,0,0,1-1-1V1A1,1,0,0,1,1,0H38.31c.52,0,.91.26.91,1V11.87a.92.92,0,0,1-.91,1H13.67V34.7h5.94c13.41,0,19.61,9.16,19.61,20.12V71.21c0,11-6.45,20.12-19.61,20.12C5.8,91.33,0,83,0,71.21Z"/></g></g><g id="gb" class="cls-1"><g class="cls-1"><path class="cls-2" d="M61.84,85.19c1.28,0,1.43-1.06,1.43-1.86V78.71H62.15a.23.23,0,0,1-.24-.25v-2.6a.24.24,0,0,1,.24-.25h4.16a.23.23,0,0,1,.25.25v7.75c0,2.6-1.49,4.8-4.72,4.8s-4.71-2.2-4.71-4.8V71a4.48,4.48,0,0,1,4.71-4.81c3.32,0,4.72,2,4.72,4.81V72.2c0,.15-.1.22-.25.22H63.52a.22.22,0,0,1-.25-.22v-.9c0-.81-.31-1.86-1.43-1.86-1.27,0-1.42,1.27-1.42,1.86v12C60.42,84.13,60.67,85.19,61.84,85.19Z"/><path class="cls-2" d="M78.28,71.61v2.11a3.76,3.76,0,0,1-1.49,3.38c1.14.68,1.49,1.89,1.49,3.47v2.6c0,2.61-1.34,5-5.09,5H69.07a.24.24,0,0,1-.25-.25V66.71a.23.23,0,0,1,.25-.25h4.09C76.85,66.46,78.28,68.38,78.28,71.61Zm-6.17-2v6h1.08c1.68,0,1.8-1.18,1.8-2V71.73c0-1-.22-2.17-1.83-2.17Zm0,9.15v6.36h1.08c1.68,0,1.8-1.24,1.8-2V80.79c0-1-.44-2.08-1.8-2.08Z"/></g></g></g><path class="cls-3" d="M69.31,35.73a1.49,1.49,0,0,0,0-2.12l-5.51-5.48a1.51,1.51,0,0,0-2.12,0l-5.52,5.48a1.5,1.5,0,0,0,0,2.12,1.53,1.53,0,0,0,1.07.44,1.48,1.48,0,0,0,1-.43L61.07,33V46.54a1.5,1.5,0,0,0,3,0V32.63l3.12,3.11A1.5,1.5,0,0,0,69.31,35.73Z"/><path class="cls-3" d="M81.26,45.93a1.5,1.5,0,0,0-2.12,0l-2.8,2.78V35.12a1.5,1.5,0,0,0-3,0V49l-3.12-3.1a1.5,1.5,0,0,0-2.12,2.13l5.52,5.48a1.52,1.52,0,0,0,1.06.43,1.5,1.5,0,0,0,1.06-.43l5.52-5.48A1.51,1.51,0,0,0,81.26,45.93Z"/></g></g></g></svg>