<svg xmlns="http://www.w3.org/2000/svg" viewBox="0 0 67 94.03"><defs><style>.cls-1{fill:#f8f8f8;}.cls-2{isolation:isolate;}.cls-3{fill:#b5b5b5;}.cls-4{fill:#c7c7c7;}.cls-5{fill:gray;}.cls-6{fill:#dbdbdb;}.cls-7{fill:#f5f5f5;}</style></defs><g id="Camada_2" data-name="Camada 2"><g id="Camada_1-2" data-name="Camada 1"><g id="Grupo_780" data-name="Grupo 780"><g id="Retângulo_337-3" data-name="Retângulo 337-3"><rect class="cls-1" width="67" height="94.03" rx="11"/></g><g id="_10sms" data-name=" 10sms" class="cls-2"><g class="cls-2"><path class="cls-3" d="M8.72,32.8A.72.72,0,0,1,9,32.2l3.27-2.92a1.33,1.33,0,0,1,.95-.35h3.52a.32.32,0,0,1,.35.35V58.69c0,.26-.13.34-.35.34H12.84a.33.33,0,0,1-.34-.34v-24l-3.36,3a.23.23,0,0,1-.42-.13Z"/><path class="cls-3" d="M26.82,59.38c-4.47,0-6.54-3.06-6.54-6.67V35.25c0-3.61,2.19-6.66,6.54-6.66,4.6,0,6.53,2.79,6.53,6.66V52.71C33.35,56.32,31.29,59.38,26.82,59.38Zm-2-6.67c0,1.12.34,2.54,2,2.54s2-1.42,2-2.54V35.25c0-1.11-.43-2.53-2-2.53-1.77,0-2,1.72-2,2.53Z"/></g><g class="cls-2"><path class="cls-3" d="M38.08,57.11c.82,0,.92-.68.92-1.2V54.57a1.69,1.69,0,0,0-1.42-1.76A3.34,3.34,0,0,1,35,49.31V48a2.89,2.89,0,0,1,3-3.1A2.78,2.78,0,0,1,41.13,48v.76c0,.1-.07.14-.16.14H39.16a.14.14,0,0,1-.16-.14v-.58c0-.52-.2-1.2-.92-1.2s-.92.82-.92,1.2v1.08A1.67,1.67,0,0,0,38.58,51a3.38,3.38,0,0,1,2.55,3.52v1.58a2.86,2.86,0,0,1-3.05,3.1,2.86,2.86,0,0,1-3-3.1v-.94c0-.1.06-.14.16-.14H37a.14.14,0,0,1,.16.14v.76C37.16,56.43,37.32,57.11,38.08,57.11Z"/><path class="cls-3" d="M48.79,52l-1.15,3.88c0,.14-.09.3-.26.32H45.9c-.16,0-.2-.18-.26-.32L44.5,52.05v6.82c0,.12-.06.16-.16.16H42.58a.16.16,0,0,1-.16-.16V45.19a.15.15,0,0,1,.16-.16h1.7c.22,0,.24.16.28.28l2.08,7.12,2.08-7.12c0-.12.07-.28.3-.28h1.69a.15.15,0,0,1,.16.16V58.87a.16.16,0,0,1-.16.16H48.94a.14.14,0,0,1-.15-.16Z"/><path class="cls-3" d="M55.2,57.11c.82,0,.92-.68.92-1.2V54.57a1.69,1.69,0,0,0-1.42-1.76,3.34,3.34,0,0,1-2.54-3.5V48a2.89,2.89,0,0,1,3-3.1,2.77,2.77,0,0,1,3,3.1v.76c0,.1-.06.14-.16.14h-1.8a.14.14,0,0,1-.16-.14v-.58c0-.52-.2-1.2-.92-1.2s-.92.82-.92,1.2v1.08A1.67,1.67,0,0,0,55.7,51a3.37,3.37,0,0,1,2.54,3.52v1.58a3,3,0,1,1-6.08,0v-.94c0-.1.06-.14.16-.14h1.8a.14.14,0,0,1,.16.14v.76C54.28,56.43,54.44,57.11,55.2,57.11Z"/></g></g><g id="R_1_00" data-name="R 1 00" class="cls-2"><g class="cls-2"><path class="cls-4" d="M19.2,84.74a.27.27,0,0,1,0,.13.23.23,0,0,1-.11.11.28.28,0,0,1-.15,0,.31.31,0,0,1-.17,0,1.06,1.06,0,0,1-.45-.52,2.92,2.92,0,0,1-.17-1.15,1.14,1.14,0,0,0-.39-1,1.54,1.54,0,0,0-.93-.29H14.57v2.69a.33.33,0,0,1-.08.22.29.29,0,0,1-.21.08A.41.41,0,0,1,14,85a.27.27,0,0,1-.1-.22v-6.4a.3.3,0,0,1,.08-.21.29.29,0,0,1,.22-.09h2.7a2,2,0,0,1,1,.25,1.83,1.83,0,0,1,.71.67,1.87,1.87,0,0,1,.25,1,2,2,0,0,1-.33,1.13,1.74,1.74,0,0,1-.88.66,1.56,1.56,0,0,1,.72.58,1.74,1.74,0,0,1,.29,1,4.52,4.52,0,0,0,.08.87.56.56,0,0,0,.25.35A.3.3,0,0,1,19.2,84.74ZM17,81.49a1.31,1.31,0,0,0,.65-.23,1.4,1.4,0,0,0,.48-.54,1.63,1.63,0,0,0,.18-.78,1.24,1.24,0,0,0-.39-.94,1.37,1.37,0,0,0-1-.38H14.57v2.87Z"/><path class="cls-4" d="M24.59,84.16a1.82,1.82,0,0,1-.68.64,2.59,2.59,0,0,1-1,.31v1.13a.28.28,0,0,1-.3.3.29.29,0,0,1-.21-.08.29.29,0,0,1-.09-.22V85.12a2.89,2.89,0,0,1-1.13-.28,3.6,3.6,0,0,1-1-.7.3.3,0,0,1,0-.46.26.26,0,0,1,.21-.1.3.3,0,0,1,.22.1,2.54,2.54,0,0,0,1.69.85v-2.8A3.86,3.86,0,0,1,20.84,81a1.56,1.56,0,0,1-.5-1.26,1.62,1.62,0,0,1,.53-1.22A2.33,2.33,0,0,1,22.28,78v-.77a.27.27,0,0,1,.09-.21.29.29,0,0,1,.22-.09.26.26,0,0,1,.21.09.3.3,0,0,1,.08.21v.76a3.6,3.6,0,0,1,1,.25,2,2,0,0,1,.74.53.5.5,0,0,1,.15.29.28.28,0,0,1-.1.21.33.33,0,0,1-.22.09.22.22,0,0,1-.17-.07,1.93,1.93,0,0,0-.6-.47,2.4,2.4,0,0,0-.79-.23v2.72a6.21,6.21,0,0,1,1,.42,1.7,1.7,0,0,1,.92,1.63A1.51,1.51,0,0,1,24.59,84.16ZM21.3,80.53a3.19,3.19,0,0,0,1,.53V78.54a1.75,1.75,0,0,0-1,.39,1,1,0,0,0-.36.8A1,1,0,0,0,21.3,80.53Zm2.54,3.59a1,1,0,0,0,.37-.81,1.11,1.11,0,0,0-.35-.83,3,3,0,0,0-1-.56v2.6A1.82,1.82,0,0,0,23.84,84.12Z"/></g><g class="cls-2"><path class="cls-5" d="M31.39,76.75a.34.34,0,0,1,.09.24v7.68a.32.32,0,0,1-.12.26.39.39,0,0,1-.28.1.35.35,0,0,1-.26-.1.31.31,0,0,1-.11-.26v-7l-1.5.89a.37.37,0,0,1-.17,0,.37.37,0,0,1-.27-.12.36.36,0,0,1-.11-.27.25.25,0,0,1,.05-.16.47.47,0,0,1,.14-.14l2-1.22a.43.43,0,0,1,.28-.05A.35.35,0,0,1,31.39,76.75Z"/><path class="cls-5" d="M34.29,85.67a1.81,1.81,0,0,1-.44.57.79.79,0,0,1-.51.22.35.35,0,0,1-.23-.07A.22.22,0,0,1,33,86.2a.21.21,0,0,1,.06-.17.85.85,0,0,1,.19-.09.67.67,0,0,0,.44-.31.74.74,0,0,0,.09-.36.28.28,0,0,0-.07-.21.23.23,0,0,0-.19-.09.48.48,0,0,0-.32.11.36.36,0,0,1-.15-.29.47.47,0,0,1,.22-.38.81.81,0,0,1,.47-.16.73.73,0,0,1,.51.2.74.74,0,0,1,.19.55A1.39,1.39,0,0,1,34.29,85.67Z"/><path class="cls-5" d="M36.89,84.59a3.5,3.5,0,0,1-1-1.54,7,7,0,0,1-.33-2.22,7.21,7.21,0,0,1,.32-2.22,3.41,3.41,0,0,1,1-1.53,2.36,2.36,0,0,1,1.6-.57,2.41,2.41,0,0,1,1.61.56,3.39,3.39,0,0,1,1,1.54,7.63,7.63,0,0,1,0,4.44,3.5,3.5,0,0,1-1,1.54,2.41,2.41,0,0,1-1.61.56A2.36,2.36,0,0,1,36.89,84.59Zm3.18-1.15a6.39,6.39,0,0,0,0-5.23,1.75,1.75,0,0,0-1.59-1,1.74,1.74,0,0,0-1.57,1,6.39,6.39,0,0,0,0,5.23,1.72,1.72,0,0,0,1.57,1A1.74,1.74,0,0,0,40.07,83.44Z"/><path class="cls-5" d="M44,84.59a3.5,3.5,0,0,1-1-1.54,7,7,0,0,1-.33-2.22A7.21,7.21,0,0,1,43,78.61a3.41,3.41,0,0,1,1-1.53,2.55,2.55,0,0,1,3.2,0,3.32,3.32,0,0,1,1,1.54,7.63,7.63,0,0,1,0,4.44,3.43,3.43,0,0,1-1,1.54,2.55,2.55,0,0,1-3.19,0Zm3.18-1.15a6.39,6.39,0,0,0,0-5.23,1.75,1.75,0,0,0-1.59-1,1.74,1.74,0,0,0-1.57,1,6.39,6.39,0,0,0,0,5.23,1.72,1.72,0,0,0,1.57,1A1.74,1.74,0,0,0,47.21,83.44Z"/></g></g><g id="sms_meu_pacote" data-name="sms meu pacote"><g id="Caminho_29" data-name="Caminho 29"><path class="cls-6" d="M44.26,30H40.83a.66.66,0,0,0-.51,1.14l2.1,1.94a1.13,1.13,0,0,1,.36.8v4.35A1.19,1.19,0,0,0,44,39.37h10.1a1.2,1.2,0,0,0,1.23-1.14V31.14A1.19,1.19,0,0,0,54.12,30Z"/></g><g id="Grupo_51-2" data-name="Grupo 51-2"><g id="Linha_18" data-name="Linha 18"><path class="cls-7" d="M52.5,33.78H45a.6.6,0,0,1,0-1.2H52.5a.6.6,0,0,1,0,1.2Z"/></g><g id="Linha_19" data-name="Linha 19"><path class="cls-7" d="M47.11,36.41H45a.6.6,0,1,1,0-1.2h2.07a.6.6,0,0,1,0,1.2Z"/></g></g></g><g id="cada-3" class="cls-2"><g class="cls-2"><path class="cls-4" d="M25.88,13.91a1.9,1.9,0,0,1,.64.28.49.49,0,0,1,.25.39.27.27,0,0,1-.08.2.23.23,0,0,1-.18.09.31.31,0,0,1-.17,0,.47.47,0,0,1-.14-.12,1.27,1.27,0,0,0-.25-.19,2,2,0,0,0-.4-.11,2.78,2.78,0,0,0-.52-.05,2,2,0,0,0-1,.28,2,2,0,0,0-.71.76,2.22,2.22,0,0,0-.26,1.06,2.26,2.26,0,0,0,.25,1.08,2,2,0,0,0,.7.76,1.88,1.88,0,0,0,1,.27,2.29,2.29,0,0,0,.58-.06,1.85,1.85,0,0,0,.42-.17,1,1,0,0,0,.24-.18.53.53,0,0,1,.14-.1.2.2,0,0,1,.13,0,.26.26,0,0,1,.19.08.25.25,0,0,1,.07.19.53.53,0,0,1-.24.37,2,2,0,0,1-.66.33,2.75,2.75,0,0,1-.93.14,2.45,2.45,0,0,1-1.3-.34,2.36,2.36,0,0,1-.89-1,2.91,2.91,0,0,1-.31-1.37,2.84,2.84,0,0,1,.32-1.33,2.4,2.4,0,0,1,.9-1A2.48,2.48,0,0,1,25,13.8,3.6,3.6,0,0,1,25.88,13.91Z"/><path class="cls-4" d="M32.3,14a.35.35,0,0,1,.08.22v4.5a.28.28,0,0,1-.3.3.29.29,0,0,1-.21-.08.29.29,0,0,1-.09-.22v-.67a2.18,2.18,0,0,1-.75.76,2,2,0,0,1-1.09.31,2.06,2.06,0,0,1-1.2-.35,2.41,2.41,0,0,1-.85-1,3,3,0,0,1-.3-1.37,2.87,2.87,0,0,1,.31-1.36,2.38,2.38,0,0,1,.85-.95A2.22,2.22,0,0,1,31,14.09a2,2,0,0,1,.75.76v-.62a.31.31,0,0,1,.09-.22.26.26,0,0,1,.21-.09A.29.29,0,0,1,32.3,14ZM30.93,18.3a2,2,0,0,0,.66-.76,2.59,2.59,0,0,0,.23-1.09,2.49,2.49,0,0,0-.23-1.06,1.86,1.86,0,0,0-.66-.75,1.57,1.57,0,0,0-.93-.28,1.69,1.69,0,0,0-.94.27,1.81,1.81,0,0,0-.64.75,2.31,2.31,0,0,0-.24,1.07,2.59,2.59,0,0,0,.23,1.09,1.91,1.91,0,0,0,.64.76,1.73,1.73,0,0,0,.95.27A1.64,1.64,0,0,0,30.93,18.3Z"/><path class="cls-4" d="M38.31,11.72a.27.27,0,0,1,.09.21v6.8a.29.29,0,0,1-.09.22.29.29,0,0,1-.21.08.28.28,0,0,1-.3-.3V18a2.15,2.15,0,0,1-.75.78,2,2,0,0,1-1.09.32,2.18,2.18,0,0,1-1.2-.34,2.46,2.46,0,0,1-.84-1,3.16,3.16,0,0,1,0-2.73,2.43,2.43,0,0,1,.84-.95A2.18,2.18,0,0,1,36,13.8a2.08,2.08,0,0,1,1.09.3,2,2,0,0,1,.76.76V11.93a.3.3,0,0,1,.08-.21.29.29,0,0,1,.22-.09A.26.26,0,0,1,38.31,11.72ZM37,18.3a1.76,1.76,0,0,0,.65-.75,2.45,2.45,0,0,0,.24-1.09,2.37,2.37,0,0,0-.24-1.07,1.76,1.76,0,0,0-.65-.75,1.57,1.57,0,0,0-.93-.28,1.62,1.62,0,0,0-.94.28,1.91,1.91,0,0,0-.65.75,2.63,2.63,0,0,0,0,2.15,2,2,0,0,0,.65.76,1.69,1.69,0,0,0,.94.27A1.64,1.64,0,0,0,37,18.3Z"/><path class="cls-4" d="M44.33,14a.31.31,0,0,1,.09.22v4.5a.29.29,0,0,1-.09.22.29.29,0,0,1-.21.08.28.28,0,0,1-.3-.3v-.67a2.18,2.18,0,0,1-.75.76,2,2,0,0,1-1.09.31,2.12,2.12,0,0,1-1.21-.35,2.46,2.46,0,0,1-.84-1,3,3,0,0,1-.3-1.37,2.87,2.87,0,0,1,.31-1.36,2.43,2.43,0,0,1,.84-.95A2.26,2.26,0,0,1,42,13.8a2.18,2.18,0,0,1,1.1.29,2,2,0,0,1,.75.76v-.62A.35.35,0,0,1,43.9,14a.29.29,0,0,1,.22-.09A.26.26,0,0,1,44.33,14ZM43,18.3a1.85,1.85,0,0,0,.65-.76,2.45,2.45,0,0,0,.24-1.09,2.36,2.36,0,0,0-.24-1.06,1.76,1.76,0,0,0-.65-.75,1.57,1.57,0,0,0-.93-.28,1.69,1.69,0,0,0-.94.27,1.91,1.91,0,0,0-.65.75,2.44,2.44,0,0,0-.23,1.07,2.59,2.59,0,0,0,.23,1.09,1.91,1.91,0,0,0,.64.76,1.73,1.73,0,0,0,.95.27A1.64,1.64,0,0,0,43,18.3Z"/></g></g></g></g></g></svg>