<svg xmlns="http://www.w3.org/2000/svg" viewBox="0 0 132 35"><defs><style>.cls-1{fill:#f8f8f8;}.cls-2{fill:#0ef500;}.cls-3{fill:#f5f5f5;}</style></defs><g id="Camada_2" data-name="Camada 2"><g id="Camada_1-2" data-name="Camada 1"><g id="Grupo_239" data-name="Grupo 239"><g id="Retângulo_25" data-name="Retângulo 25"><rect class="cls-1" width="132" height="35" rx="17"/></g><g id="Grupo_238" data-name="Grupo 238"><path class="cls-2" d="M32.91,13.69A1.47,1.47,0,0,0,34,13.25a1.5,1.5,0,0,0,0-2.12l-5-5a1.5,1.5,0,0,0-2.11,0l-5,5A1.5,1.5,0,1,0,24,13.26L26.26,11V23a1.5,1.5,0,0,0,3,0V10.69l2.59,2.57A1.48,1.48,0,0,0,32.91,13.69Z"/><path class="cls-2" d="M44.8,22.3a1.49,1.49,0,0,0-2.12,0l-2.29,2.28v-12a1.5,1.5,0,0,0-3,0V24.87L34.8,22.3a1.5,1.5,0,1,0-2.12,2.12l5,5a1.51,1.51,0,0,0,1.06.44,1.53,1.53,0,0,0,1.06-.44l5-5A1.5,1.5,0,0,0,44.8,22.3Z"/><path class="cls-2" d="M73.81,23.79l-2-3.55c-.19-.33-.63-.6-1-.4l-1.11.65h0l-.53.31c-.35.2-1,.42-2.85-2.82s-1.33-3.71-1-3.91l.53-.31h0L67,13.1c.34-.19.27-.81.07-1.15L65.16,8.59c-.19-.33-.46-.31-.79-.12l-1.11.66-.56.32c-.61.36-3,3.13,1.08,10.31s7.64,6.46,8.25,6.1l.56-.32h0l1.11-.66C74,24.69,74,24.13,73.81,23.79Z"/><g id="sms_meu_pacote" data-name="sms meu pacote"><g id="Caminho_29" data-name="Caminho 29"><path class="cls-2" d="M93.44,10H88.21a1.1,1.1,0,0,0-1.11,1.08,1.11,1.11,0,0,0,.33.79L90.63,15a1.83,1.83,0,0,1,.56,1.32v7.14a1.88,1.88,0,0,0,1.89,1.87h15.39a1.88,1.88,0,0,0,1.88-1.87V11.84A1.87,1.87,0,0,0,108.47,10Z"/></g><g id="Grupo_51-2" data-name="Grupo 51-2"><g id="Linha_18" data-name="Linha 18"><path class="cls-3" d="M105.28,16.57H96.17a.6.6,0,1,1,0-1.2h9.11a.6.6,0,1,1,0,1.2Z"/></g><g id="Linha_19" data-name="Linha 19"><path class="cls-3" d="M98.24,19.21H96.17a.6.6,0,0,1-.6-.6.6.6,0,0,1,.6-.6h2.07a.6.6,0,0,1,.6.6A.6.6,0,0,1,98.24,19.21Z"/></g></g></g></g></g></g></g></svg>