<svg xmlns="http://www.w3.org/2000/svg" viewBox="0 0 67 94.03"><defs><style>.cls-1{fill:#f8f8f8;}.cls-2{isolation:isolate;}.cls-3{fill:#b5b5b5;}.cls-4{fill:#c7c7c7;}.cls-5{fill:gray;}.cls-6{fill:#dbdbdb;}</style></defs><g id="Camada_2" data-name="Camada 2"><g id="Camada_1-2" data-name="Camada 1"><g id="Grupo_778" data-name="Grupo 778"><g id="Retângulo_337" data-name="Retângulo 337"><rect class="cls-1" width="67" height="94.03" rx="11"/></g><g id="_0.5gb" data-name=" 0.5gb" class="cls-2"><g class="cls-2"><path class="cls-3" d="M16.83,60.38c-4.48,0-6.54-3.06-6.54-6.67V36.25c0-3.61,2.19-6.66,6.54-6.66,4.6,0,6.53,2.79,6.53,6.66V53.71C23.36,57.32,21.3,60.38,16.83,60.38Zm-2-6.67c0,1.12.34,2.54,2,2.54s2-1.42,2-2.54V36.25c0-1.11-.43-2.53-2-2.53-1.77,0-2,1.72-2,2.53Z"/><path class="cls-3" d="M25.21,60a.33.33,0,0,1-.34-.34V55.82a.32.32,0,0,1,.34-.35h3.87a.32.32,0,0,1,.35.35v3.87c0,.26-.13.34-.35.34Z"/><path class="cls-3" d="M31.14,52.08a.32.32,0,0,1,.35-.35h3.87a.32.32,0,0,1,.34.35V53.5c0,1.11.43,2.58,2,2.58,1.76,0,2-1.77,2-2.58V48.42c0-1.12-.3-2.58-2-2.58H31.49a.34.34,0,0,1-.35-.34V30.28a.34.34,0,0,1,.35-.35H43.92c.17,0,.3.09.3.35v3.61a.31.31,0,0,1-.3.34H35.7V41.5h2c4.47,0,6.54,3,6.54,6.71v5.46c0,3.65-2.15,6.71-6.54,6.71-4.6,0-6.54-2.8-6.54-6.71Z"/></g><g class="cls-2"><path class="cls-3" d="M48.72,58.11c.82,0,.92-.68.92-1.2v-3h-.72a.15.15,0,0,1-.16-.16V52.09a.16.16,0,0,1,.16-.16H51.6a.15.15,0,0,1,.16.16v5a3,3,0,1,1-6.08,0V49a2.89,2.89,0,0,1,3-3.1,2.77,2.77,0,0,1,3,3.1v.76c0,.1-.06.14-.16.14H49.8a.14.14,0,0,1-.16-.14v-.58c0-.52-.2-1.2-.92-1.2s-.92.82-.92,1.2v7.76C47.8,57.43,48,58.11,48.72,58.11Z"/><path class="cls-3" d="M59.32,49.35v1.36a2.42,2.42,0,0,1-1,2.18,2.34,2.34,0,0,1,1,2.24v1.68A3,3,0,0,1,56,60H53.38a.16.16,0,0,1-.16-.16V46.19a.15.15,0,0,1,.16-.16H56C58.4,46,59.32,47.27,59.32,49.35Zm-4-1.32v3.9H56c1.08,0,1.16-.76,1.16-1.28V49.43c0-.66-.14-1.4-1.18-1.4Zm0,5.9V58H56c1.08,0,1.16-.8,1.16-1.32V55.27c0-.66-.28-1.34-1.16-1.34Z"/></g></g><g id="R_4_99" data-name="R 4 99" class="cls-2"><g class="cls-2"><path class="cls-4" d="M19.2,84.74a.27.27,0,0,1,0,.13.23.23,0,0,1-.11.11.28.28,0,0,1-.15,0,.31.31,0,0,1-.17,0,1.06,1.06,0,0,1-.45-.52,2.92,2.92,0,0,1-.17-1.15,1.14,1.14,0,0,0-.39-1,1.54,1.54,0,0,0-.93-.29H14.57v2.69a.33.33,0,0,1-.08.22.29.29,0,0,1-.21.08A.41.41,0,0,1,14,85a.27.27,0,0,1-.1-.22v-6.4a.3.3,0,0,1,.08-.21.29.29,0,0,1,.22-.09h2.7a2,2,0,0,1,1,.25,1.83,1.83,0,0,1,.71.67,2,2,0,0,1,.25,1,1.91,1.91,0,0,1-.34,1.13,1.68,1.68,0,0,1-.87.66,1.56,1.56,0,0,1,.72.58,1.74,1.74,0,0,1,.29,1,3.19,3.19,0,0,0,.09.87.52.52,0,0,0,.24.35A.3.3,0,0,1,19.2,84.74ZM17,81.49a1.31,1.31,0,0,0,.65-.23,1.4,1.4,0,0,0,.48-.54,1.63,1.63,0,0,0,.18-.78A1.27,1.27,0,0,0,17.9,79a1.41,1.41,0,0,0-1-.38H14.57v2.87Z"/><path class="cls-4" d="M24.6,84.16a1.93,1.93,0,0,1-.69.64,2.59,2.59,0,0,1-1,.31v1.13a.28.28,0,0,1-.3.3.29.29,0,0,1-.21-.08.29.29,0,0,1-.09-.22V85.12a2.89,2.89,0,0,1-1.13-.28,3.6,3.6,0,0,1-1-.7.3.3,0,0,1,0-.46.26.26,0,0,1,.21-.1.3.3,0,0,1,.22.1,2.54,2.54,0,0,0,1.69.85v-2.8A3.86,3.86,0,0,1,20.84,81a1.56,1.56,0,0,1-.5-1.26,1.62,1.62,0,0,1,.53-1.22A2.33,2.33,0,0,1,22.28,78v-.77a.27.27,0,0,1,.09-.21.29.29,0,0,1,.22-.09.26.26,0,0,1,.21.09.3.3,0,0,1,.08.21v.76a3.6,3.6,0,0,1,1,.25,2,2,0,0,1,.74.53.5.5,0,0,1,.15.29.28.28,0,0,1-.1.21.33.33,0,0,1-.22.09.22.22,0,0,1-.17-.07,1.93,1.93,0,0,0-.6-.47,2.4,2.4,0,0,0-.79-.23v2.72a6.21,6.21,0,0,1,1,.42,1.71,1.71,0,0,1,.66.62,1.74,1.74,0,0,1,.26,1A1.58,1.58,0,0,1,24.6,84.16Zm-3.29-3.63a3,3,0,0,0,1,.53V78.54a1.75,1.75,0,0,0-1,.39,1.08,1.08,0,0,0,0,1.6Zm2.53,3.59a1,1,0,0,0,.37-.81,1.11,1.11,0,0,0-.35-.83,3,3,0,0,0-1-.56v2.6A1.82,1.82,0,0,0,23.84,84.12Z"/></g><g class="cls-2"><path class="cls-5" d="M34.66,81.86a.33.33,0,0,1,.1.24.3.3,0,0,1-.1.24.33.33,0,0,1-.24.1h-.81v2.23a.31.31,0,0,1-.11.26.35.35,0,0,1-.26.1.32.32,0,0,1-.25-.1.34.34,0,0,1-.1-.26V82.44H29.36a.36.36,0,0,1-.25-.11.4.4,0,0,1-.11-.26.32.32,0,0,1,.09-.24l3.86-5a.34.34,0,0,1,.3-.15.38.38,0,0,1,.26.1.35.35,0,0,1,.1.26v4.78h.81A.36.36,0,0,1,34.66,81.86ZM30,81.77h2.9V77.93Z"/><path class="cls-5" d="M37,85.67a2,2,0,0,1-.44.57.81.81,0,0,1-.52.22.32.32,0,0,1-.22-.07.22.22,0,0,1-.09-.19.21.21,0,0,1,.06-.17.67.67,0,0,1,.19-.09.52.52,0,0,0,.18-.07.6.6,0,0,0,.26-.24.74.74,0,0,0,.09-.36.28.28,0,0,0-.07-.21.23.23,0,0,0-.19-.09.52.52,0,0,0-.33.11.38.38,0,0,1-.14-.29.48.48,0,0,1,.21-.38.83.83,0,0,1,.47-.16.69.69,0,0,1,.51.2.74.74,0,0,1,.2.55A1.51,1.51,0,0,1,37,85.67Z"/><path class="cls-5" d="M42.41,76.92a2.68,2.68,0,0,1,.93,1.1,3.66,3.66,0,0,1,.3,1.48,6.24,6.24,0,0,1-.42,2.15A7,7,0,0,1,42,83.74a5,5,0,0,1-2,1.38l-.14,0a.4.4,0,0,1-.27-.11.33.33,0,0,1-.11-.26.35.35,0,0,1,.28-.35,5.11,5.11,0,0,0,1.82-1.35,4.94,4.94,0,0,0,1.14-2,2.59,2.59,0,0,1-2,.86,2.16,2.16,0,0,1-1.27-.38,2.61,2.61,0,0,1-.89-1,2.85,2.85,0,0,1-.32-1.34,2.69,2.69,0,0,1,.34-1.33,2.65,2.65,0,0,1,.95-1,2.49,2.49,0,0,1,1.35-.37A2.65,2.65,0,0,1,42.41,76.92Zm-.46,4a1.86,1.86,0,0,0,.72-.75,2.27,2.27,0,0,0,.24-1,2,2,0,0,0-.24-1,1.81,1.81,0,0,0-.69-.71,2.07,2.07,0,0,0-1.07-.27,1.92,1.92,0,0,0-1,.25,1.77,1.77,0,0,0-.67.71,2,2,0,0,0-.25,1,2.25,2.25,0,0,0,.22,1,1.69,1.69,0,0,0,.63.74,1.77,1.77,0,0,0,1,.29A2.13,2.13,0,0,0,42,80.94Z"/><path class="cls-5" d="M49,76.92A2.54,2.54,0,0,1,50,78a3.51,3.51,0,0,1,.31,1.48,6,6,0,0,1-.43,2.15,6.63,6.63,0,0,1-1.26,2.09,4.91,4.91,0,0,1-2,1.38l-.14,0a.37.37,0,0,1-.27-.11.34.34,0,0,1-.12-.26.36.36,0,0,1,.29-.35,5.2,5.2,0,0,0,1.82-1.35,5,5,0,0,0,1.13-2,2.63,2.63,0,0,1-.86.63,2.66,2.66,0,0,1-1.09.23,2.19,2.19,0,0,1-1.28-.38,2.59,2.59,0,0,1-.88-1,2.86,2.86,0,0,1-.33-1.34,2.8,2.8,0,0,1,.34-1.33,2.73,2.73,0,0,1,1-1,2.54,2.54,0,0,1,1.35-.37A2.63,2.63,0,0,1,49,76.92Zm-.45,4a1.77,1.77,0,0,0,.71-.75,2.16,2.16,0,0,0,.25-1,2,2,0,0,0-.24-1,1.77,1.77,0,0,0-.7-.71,2,2,0,0,0-1.07-.27,1.91,1.91,0,0,0-1,.25,1.79,1.79,0,0,0-.68.71,2.15,2.15,0,0,0-.24,1,2.39,2.39,0,0,0,.21,1,1.77,1.77,0,0,0,.64.74,1.74,1.74,0,0,0,1,.29A2.15,2.15,0,0,0,48.59,80.94Z"/></g></g><g id="cada" class="cls-2"><g class="cls-2"><path class="cls-4" d="M24.88,13.91a1.81,1.81,0,0,1,.64.28.49.49,0,0,1,.25.39.27.27,0,0,1-.08.2.21.21,0,0,1-.18.09.25.25,0,0,1-.16,0,.4.4,0,0,1-.15-.12,1.27,1.27,0,0,0-.25-.19,2.1,2.1,0,0,0-.39-.11,3,3,0,0,0-.53-.05,2,2,0,0,0-1,.28,2,2,0,0,0-.71.76,2.22,2.22,0,0,0-.26,1.06,2.26,2.26,0,0,0,.25,1.08,2,2,0,0,0,.7.76,1.88,1.88,0,0,0,1,.27,2.16,2.16,0,0,0,.57-.06,1.75,1.75,0,0,0,.43-.17,1,1,0,0,0,.24-.18.53.53,0,0,1,.14-.1.2.2,0,0,1,.13,0,.26.26,0,0,1,.19.08.25.25,0,0,1,.07.19.53.53,0,0,1-.24.37,2,2,0,0,1-.66.33,2.75,2.75,0,0,1-.93.14,2.45,2.45,0,0,1-1.3-.34,2.34,2.34,0,0,1-.88-1,2.91,2.91,0,0,1-.32-1.37,2.84,2.84,0,0,1,.32-1.33,2.4,2.4,0,0,1,.9-1A2.48,2.48,0,0,1,24,13.8,3.6,3.6,0,0,1,24.88,13.91Z"/><path class="cls-4" d="M31.29,14a.31.31,0,0,1,.09.22v4.5a.29.29,0,0,1-.09.22.32.32,0,0,1-.42,0,.29.29,0,0,1-.09-.22v-.67a2.18,2.18,0,0,1-.75.76,2,2,0,0,1-1.09.31,2.06,2.06,0,0,1-1.2-.35,2.31,2.31,0,0,1-.84-1,2.91,2.91,0,0,1-.31-1.37,2.87,2.87,0,0,1,.31-1.36,2.38,2.38,0,0,1,.85-.95A2.22,2.22,0,0,1,30,14.09a2,2,0,0,1,.75.76v-.62a.31.31,0,0,1,.09-.22.29.29,0,0,1,.42,0ZM29.94,18.3a1.91,1.91,0,0,0,.64-.76,2.45,2.45,0,0,0,.24-1.09,2.36,2.36,0,0,0-.24-1.06,1.81,1.81,0,0,0-.64-.75,1.62,1.62,0,0,0-.94-.28,1.69,1.69,0,0,0-.94.27,1.81,1.81,0,0,0-.64.75,2.31,2.31,0,0,0-.24,1.07,2.59,2.59,0,0,0,.23,1.09,1.85,1.85,0,0,0,.65.76,1.67,1.67,0,0,0,.94.27A1.69,1.69,0,0,0,29.94,18.3Z"/><path class="cls-4" d="M37.31,11.72a.27.27,0,0,1,.09.21v6.8a.29.29,0,0,1-.09.22.29.29,0,0,1-.21.08.28.28,0,0,1-.3-.3V18a2.15,2.15,0,0,1-.75.78,2,2,0,0,1-1.09.32,2.18,2.18,0,0,1-1.2-.34,2.46,2.46,0,0,1-.84-1,3.16,3.16,0,0,1,0-2.73,2.43,2.43,0,0,1,.84-.95A2.18,2.18,0,0,1,35,13.8a2.08,2.08,0,0,1,1.09.3,2,2,0,0,1,.76.76V11.93a.3.3,0,0,1,.08-.21.29.29,0,0,1,.22-.09A.26.26,0,0,1,37.31,11.72ZM36,18.3a1.76,1.76,0,0,0,.65-.75,2.45,2.45,0,0,0,.24-1.09,2.37,2.37,0,0,0-.24-1.07,1.76,1.76,0,0,0-.65-.75,1.57,1.57,0,0,0-.93-.28,1.62,1.62,0,0,0-.94.28,1.91,1.91,0,0,0-.65.75,2.63,2.63,0,0,0,0,2.15,2,2,0,0,0,.65.76,1.69,1.69,0,0,0,.94.27A1.64,1.64,0,0,0,36,18.3Z"/><path class="cls-4" d="M43.33,14a.31.31,0,0,1,.09.22v4.5a.29.29,0,0,1-.09.22.29.29,0,0,1-.21.08.28.28,0,0,1-.3-.3v-.67a2.18,2.18,0,0,1-.75.76,2,2,0,0,1-1.09.31,2.12,2.12,0,0,1-1.21-.35,2.46,2.46,0,0,1-.84-1,3,3,0,0,1-.3-1.37,2.87,2.87,0,0,1,.31-1.36,2.43,2.43,0,0,1,.84-.95A2.26,2.26,0,0,1,41,13.8a2.18,2.18,0,0,1,1.1.29,2,2,0,0,1,.75.76v-.62A.35.35,0,0,1,42.9,14a.29.29,0,0,1,.22-.09A.26.26,0,0,1,43.33,14ZM42,18.3a1.85,1.85,0,0,0,.65-.76,2.45,2.45,0,0,0,.24-1.09,2.36,2.36,0,0,0-.24-1.06,1.76,1.76,0,0,0-.65-.75,1.57,1.57,0,0,0-.93-.28,1.69,1.69,0,0,0-.94.27,1.91,1.91,0,0,0-.65.75,2.44,2.44,0,0,0-.23,1.07,2.59,2.59,0,0,0,.23,1.09,1.91,1.91,0,0,0,.64.76,1.73,1.73,0,0,0,.95.27A1.64,1.64,0,0,0,42,18.3Z"/></g></g><g id="Grupo_781" data-name="Grupo 781"><g id="Grupo_51" data-name="Grupo 51"><g id="dados_meu_pacote" data-name="dados meu pacote"><g id="Grupo_49" data-name="Grupo 49"><g id="Caminho_27" data-name="Caminho 27"><path class="cls-6" d="M50.7,39.85a.6.6,0,0,1-.6-.6V33a.6.6,0,0,1,1.2,0v6.26A.6.6,0,0,1,50.7,39.85Z"/></g><g id="Caminho_28" data-name="Caminho 28"><path class="cls-6" d="M48.4,34.77A.61.61,0,0,1,48,34.6a.6.6,0,0,1,0-.85l2.36-2.35a.61.61,0,0,1,.85,0l2.36,2.35a.6.6,0,0,1-.84.85l-1.94-1.93L48.83,34.6A.63.63,0,0,1,48.4,34.77Z"/></g></g><g id="Grupo_50" data-name="Grupo 50"><g id="Caminho_27-2" data-name="Caminho 27-2"><path class="cls-6" d="M56,41.23a.6.6,0,0,1-.6-.6V34.37a.6.6,0,1,1,1.2,0v6.26A.6.6,0,0,1,56,41.23Z"/></g><g id="Caminho_28-2" data-name="Caminho 28-2"><path class="cls-6" d="M55.88,42.39a.63.63,0,0,1-.42-.17L53.1,39.87a.6.6,0,1,1,.84-.85L55.88,41,57.83,39a.6.6,0,0,1,.84.85l-2.36,2.35A.63.63,0,0,1,55.88,42.39Z"/></g></g></g></g></g></g></g></g></svg>