<svg xmlns="http://www.w3.org/2000/svg" width="18.171" height="8.721" viewBox="0 0 18.171 8.721"><defs><style>.a{fill:#dbdbdb;}</style></defs><path class="a" d="M18.644,11.961a4.044,4.044,0,0,0-5.892,0l-1.222,1.257a.175.175,0,0,0,0,.239l.76.8a.151.151,0,0,0,.219,0L13.723,13a2.708,2.708,0,0,1,3.941,0,2.989,2.989,0,0,1,0,4.094,2.708,2.708,0,0,1-3.941,0L8.8,11.961a4.044,4.044,0,0,0-5.892,0,4.5,4.5,0,0,0,0,6.169,4.044,4.044,0,0,0,5.892,0l1.215-1.257a.175.175,0,0,0,0-.239l-.76-.792a.151.151,0,0,0-.219,0L7.823,17.1a2.708,2.708,0,0,1-3.941,0,2.989,2.989,0,0,1,0-4.094,2.708,2.708,0,0,1,3.941,0l4.917,5.134a4.044,4.044,0,0,0,5.892,0,4.513,4.513,0,0,0,.012-6.173Z" transform="translate(-1.688 -10.687)"/></svg>