<svg xmlns="http://www.w3.org/2000/svg" width="17.569" height="22.652" viewBox="0 0 17.569 22.652"><defs><style>.a{fill:#e6e6e6;}</style></defs><path class="a" d="M5.555,6.111h1.49c.447,0,.732-.657.732-1.1V.575C7.778.131,7.492,0,7.045,0H5.555Zm0,8.889h1.49c.447,0,.732.516.732.96v4.69c0,.441-.286,1.017-.732,1.017H5.555ZM3.589,10.555c-.013-4.287.793-4.444,1.253-4.444h.714V0H4.81C3.992,0,0,1.345,0,10.833S3.992,21.666,4.81,21.666h.746V15H4.842C4.382,15,3.6,14.84,3.589,10.555Z" transform="translate(0 3.889) rotate(-30)"/></svg>