<svg xmlns="http://www.w3.org/2000/svg" viewBox="0 0 67 94.03"><defs><style>.cls-1{fill:#f8f8f8;}.cls-2{isolation:isolate;}.cls-3{fill:#b5b5b5;}.cls-4{fill:#c7c7c7;}.cls-5{fill:gray;}.cls-6{fill:#dbdbdb;}</style></defs><g id="Camada_2" data-name="Camada 2"><g id="Camada_1-2" data-name="Camada 1"><g id="Grupo_779" data-name="Grupo 779"><g id="Retângulo_337-2" data-name="Retângulo 337-2"><rect class="cls-1" width="67" height="94.03" rx="11"/></g><g id="_30min" data-name=" 30min" class="cls-2"><g class="cls-2"><path class="cls-3" d="M9.27,53.5h3.87a.31.31,0,0,1,.35.34c0,1,.47,2.24,2,2.24,1.85,0,2-1.77,2-2.84V49.76c0-1.29-.47-2.84-2.23-2.84h-1a.33.33,0,0,1-.34-.35V43a.32.32,0,0,1,.34-.34h1c2.11,0,2.23-1.55,2.23-2.63V36.9c0-1.29-.25-3-2-3a2.07,2.07,0,0,0-2,2.19.32.32,0,0,1-.35.35H9.27c-.21,0-.34-.09-.34-.35.13-3.74,2.41-6.53,6.54-6.53S22,32.6,22,36.68v2.58a7.56,7.56,0,0,1-1.76,5.42c1.29,1.38,1.76,3,1.76,5.59v3.18c0,3.4-2.06,6.93-6.53,6.93-5.25,0-6.45-3.31-6.54-6.54C8.93,53.58,9.06,53.5,9.27,53.5Z"/><path class="cls-3" d="M30.9,60.38c-4.47,0-6.53-3.06-6.53-6.67V36.25c0-3.61,2.19-6.66,6.53-6.66,4.6,0,6.54,2.79,6.54,6.66V53.71C37.44,57.32,35.37,60.38,30.9,60.38Zm-2-6.67c0,1.12.35,2.54,2,2.54s2-1.42,2-2.54V36.25c0-1.11-.43-2.53-2-2.53-1.76,0-2,1.72-2,2.53Z"/></g><g class="cls-2"><path class="cls-3" d="M46,53l-1.14,3.88c0,.14-.1.3-.26.32H43.11c-.16,0-.2-.18-.26-.32l-1.14-3.82v6.82c0,.12-.06.16-.16.16H39.79a.16.16,0,0,1-.16-.16V46.19a.15.15,0,0,1,.16-.16h1.7c.22,0,.24.16.28.28l2.08,7.12,2.08-7.12c0-.12.06-.28.3-.28h1.68a.15.15,0,0,1,.16.16V59.87a.16.16,0,0,1-.16.16H46.15a.15.15,0,0,1-.16-.16Z"/><path class="cls-3" d="M50,60a.16.16,0,0,1-.16-.16V46.19A.15.15,0,0,1,50,46h1.8a.15.15,0,0,1,.16.16V59.87c0,.12-.06.16-.16.16Z"/><path class="cls-3" d="M57.93,60a.16.16,0,0,1-.16-.16l-1.9-6.56v6.56c0,.12-.06.16-.16.16H54a.16.16,0,0,1-.16-.16V46.19A.15.15,0,0,1,54,46h1.8a.15.15,0,0,1,.16.16l1.9,6.56V46.19A.15.15,0,0,1,58,46h1.76a.16.16,0,0,1,.16.16V59.87a.15.15,0,0,1-.16.16Z"/></g></g><g id="R_3_00" data-name="R 3 00" class="cls-2"><g class="cls-2"><path class="cls-4" d="M19.2,84.74a.27.27,0,0,1,0,.13.23.23,0,0,1-.11.11.28.28,0,0,1-.15,0,.31.31,0,0,1-.17,0,1.06,1.06,0,0,1-.45-.52,2.92,2.92,0,0,1-.17-1.15,1.14,1.14,0,0,0-.39-1,1.54,1.54,0,0,0-.93-.29H14.57v2.69a.33.33,0,0,1-.08.22.29.29,0,0,1-.21.08A.41.41,0,0,1,14,85a.27.27,0,0,1-.1-.22v-6.4a.3.3,0,0,1,.08-.21.29.29,0,0,1,.22-.09h2.7a2,2,0,0,1,1,.25,1.83,1.83,0,0,1,.71.67,1.87,1.87,0,0,1,.25,1,2,2,0,0,1-.33,1.13,1.74,1.74,0,0,1-.88.66,1.56,1.56,0,0,1,.72.58,1.74,1.74,0,0,1,.29,1,3.19,3.19,0,0,0,.09.87.55.55,0,0,0,.24.35A.3.3,0,0,1,19.2,84.74ZM17,81.49a1.31,1.31,0,0,0,.65-.23,1.4,1.4,0,0,0,.48-.54,1.63,1.63,0,0,0,.18-.78A1.27,1.27,0,0,0,17.9,79a1.41,1.41,0,0,0-1-.38H14.57v2.87Z"/><path class="cls-4" d="M24.6,84.16a1.93,1.93,0,0,1-.69.64,2.59,2.59,0,0,1-1,.31v1.13a.28.28,0,0,1-.3.3.29.29,0,0,1-.21-.08.29.29,0,0,1-.09-.22V85.12a2.89,2.89,0,0,1-1.13-.28,3.6,3.6,0,0,1-1-.7.3.3,0,0,1,0-.46.26.26,0,0,1,.21-.1.3.3,0,0,1,.22.1,2.54,2.54,0,0,0,1.69.85v-2.8A3.86,3.86,0,0,1,20.84,81a1.56,1.56,0,0,1-.5-1.26,1.62,1.62,0,0,1,.53-1.22A2.33,2.33,0,0,1,22.28,78v-.77a.27.27,0,0,1,.09-.21.29.29,0,0,1,.22-.09.26.26,0,0,1,.21.09.3.3,0,0,1,.08.21v.76a3.6,3.6,0,0,1,1,.25,2,2,0,0,1,.74.53.5.5,0,0,1,.15.29.28.28,0,0,1-.1.21.33.33,0,0,1-.22.09.22.22,0,0,1-.17-.07,1.93,1.93,0,0,0-.6-.47,2.4,2.4,0,0,0-.79-.23v2.72a6.21,6.21,0,0,1,1,.42,1.7,1.7,0,0,1,.92,1.63A1.58,1.58,0,0,1,24.6,84.16Zm-3.29-3.63a3,3,0,0,0,1,.53V78.54a1.75,1.75,0,0,0-1,.39,1.08,1.08,0,0,0,0,1.6Zm2.53,3.59a1,1,0,0,0,.37-.81,1.11,1.11,0,0,0-.35-.83,3,3,0,0,0-1-.56v2.6A1.82,1.82,0,0,0,23.84,84.12Z"/></g><g class="cls-2"><path class="cls-5" d="M32.9,80a2.32,2.32,0,0,1,.93.91,2.7,2.7,0,0,1,.36,1.42,2.74,2.74,0,0,1-.39,1.45,2.8,2.8,0,0,1-1.06,1,3.24,3.24,0,0,1-1.49.35,2.8,2.8,0,0,1-1-.17,2.09,2.09,0,0,1-.81-.5.34.34,0,0,1-.17-.29.39.39,0,0,1,.11-.27.32.32,0,0,1,.25-.12.48.48,0,0,1,.3.13,1.8,1.8,0,0,0,1.39.54,2.21,2.21,0,0,0,1.07-.27,1.92,1.92,0,0,0,.78-.74,2.08,2.08,0,0,0,.29-1.08,1.9,1.9,0,0,0-.3-1.1,1.7,1.7,0,0,0-.77-.66,2.42,2.42,0,0,0-1-.21l-.37,0-.29,0a.3.3,0,0,1-.23-.11.35.35,0,0,1-.09-.25.38.38,0,0,1,.12-.28l2.29-2.54H29.48a.37.37,0,0,1-.24-.1.32.32,0,0,1-.1-.25.3.3,0,0,1,.1-.24.33.33,0,0,1,.24-.1h4a.34.34,0,0,1,.28.12.38.38,0,0,1,.09.25.37.37,0,0,1-.12.27l-2.2,2.45h.07A2.61,2.61,0,0,1,32.9,80Z"/><path class="cls-5" d="M36.53,85.67a1.79,1.79,0,0,1-.43.57.81.81,0,0,1-.52.22.32.32,0,0,1-.22-.07.22.22,0,0,1-.09-.19.21.21,0,0,1,.06-.17.74.74,0,0,1,.18-.09.5.5,0,0,0,.19-.07.6.6,0,0,0,.26-.24.74.74,0,0,0,.09-.36.33.33,0,0,0-.07-.21.25.25,0,0,0-.2-.09.52.52,0,0,0-.32.11.35.35,0,0,1-.14-.29.48.48,0,0,1,.21-.38.83.83,0,0,1,.47-.16.69.69,0,0,1,.51.2.74.74,0,0,1,.2.55A1.4,1.4,0,0,1,36.53,85.67Z"/><path class="cls-5" d="M39.13,84.59a3.5,3.5,0,0,1-1-1.54,7.63,7.63,0,0,1,0-4.44,3.25,3.25,0,0,1,1-1.53,2.34,2.34,0,0,1,1.6-.57,2.4,2.4,0,0,1,1.6.56,3.31,3.31,0,0,1,1,1.54,7.63,7.63,0,0,1,0,4.44,3.42,3.42,0,0,1-1,1.54,2.57,2.57,0,0,1-3.2,0Zm3.19-1.15a6.39,6.39,0,0,0,0-5.23,1.78,1.78,0,0,0-3.17,0,6.39,6.39,0,0,0,0,5.23,1.78,1.78,0,0,0,3.17,0Z"/><path class="cls-5" d="M46.27,84.59a3.5,3.5,0,0,1-1-1.54,7.63,7.63,0,0,1,0-4.44,3.25,3.25,0,0,1,1-1.53,2.34,2.34,0,0,1,1.6-.57,2.4,2.4,0,0,1,1.6.56,3.31,3.31,0,0,1,1,1.54,7.63,7.63,0,0,1,0,4.44,3.42,3.42,0,0,1-1,1.54,2.57,2.57,0,0,1-3.2,0Zm3.19-1.15a6.39,6.39,0,0,0,0-5.23,1.78,1.78,0,0,0-3.17,0,6.39,6.39,0,0,0,0,5.23,1.78,1.78,0,0,0,3.17,0Z"/></g></g><g id="Chamada_meu_pacote" data-name="Chamada meu pacote"><g id="Icon_map-volume-control-telephone" data-name="Icon map-volume-control-telephone"><path class="cls-6" d="M50.09,33.52l.67-.39c.2-.12.16-.49,0-.69l-1.16-2c-.12-.2-.28-.19-.48-.07l-.68.39Zm2.32,4,.68-.38c.2-.12.47,0,.58.24l1.23,2.11c.11.2.14.53-.07.65l-.67.39Zm-2-1.48c-1.13-1.93-.81-2.21-.6-2.33l.33-.19-1.61-2.75-.33.19c-.38.22-1.83,1.86.65,6.13s4.64,3.85,5,3.63l.34-.19-1.75-3-.32.19C51.88,37.83,51.48,38,50.36,36Z"/></g></g><g id="cada-2" class="cls-2"><g class="cls-2"><path class="cls-4" d="M25.88,13.91a1.81,1.81,0,0,1,.64.28.49.49,0,0,1,.25.39.27.27,0,0,1-.08.2.21.21,0,0,1-.18.09.25.25,0,0,1-.16,0,.4.4,0,0,1-.15-.12,1.27,1.27,0,0,0-.25-.19,2.1,2.1,0,0,0-.39-.11,3,3,0,0,0-.53-.05,2,2,0,0,0-1,.28,2,2,0,0,0-.71.76,2.22,2.22,0,0,0-.26,1.06,2.26,2.26,0,0,0,.25,1.08,2,2,0,0,0,.7.76,1.88,1.88,0,0,0,1,.27,2.29,2.29,0,0,0,.58-.06,1.85,1.85,0,0,0,.42-.17,1,1,0,0,0,.24-.18.53.53,0,0,1,.14-.1.2.2,0,0,1,.13,0,.26.26,0,0,1,.19.08.25.25,0,0,1,.07.19.53.53,0,0,1-.24.37,2,2,0,0,1-.66.33,2.75,2.75,0,0,1-.93.14,2.45,2.45,0,0,1-1.3-.34,2.34,2.34,0,0,1-.88-1,2.91,2.91,0,0,1-.32-1.37,2.84,2.84,0,0,1,.32-1.33,2.4,2.4,0,0,1,.9-1A2.48,2.48,0,0,1,25,13.8,3.53,3.53,0,0,1,25.88,13.91Z"/><path class="cls-4" d="M32.3,14a.35.35,0,0,1,.08.22v4.5a.28.28,0,0,1-.3.3.29.29,0,0,1-.21-.08.29.29,0,0,1-.09-.22v-.67a2.18,2.18,0,0,1-.75.76,2,2,0,0,1-1.09.31,2.06,2.06,0,0,1-1.2-.35,2.31,2.31,0,0,1-.84-1,2.91,2.91,0,0,1-.31-1.37,2.87,2.87,0,0,1,.31-1.36,2.38,2.38,0,0,1,.85-.95A2.22,2.22,0,0,1,31,14.09a2,2,0,0,1,.75.76v-.62a.31.31,0,0,1,.09-.22.26.26,0,0,1,.21-.09A.29.29,0,0,1,32.3,14ZM30.94,18.3a2,2,0,0,0,.65-.76,2.59,2.59,0,0,0,.23-1.09,2.49,2.49,0,0,0-.23-1.06,1.91,1.91,0,0,0-.65-.75,1.73,1.73,0,0,0-1.87,0,1.76,1.76,0,0,0-.65.75,2.31,2.31,0,0,0-.24,1.07,2.59,2.59,0,0,0,.23,1.09,1.85,1.85,0,0,0,.65.76,1.67,1.67,0,0,0,.94.27A1.69,1.69,0,0,0,30.94,18.3Z"/><path class="cls-4" d="M38.31,11.72a.27.27,0,0,1,.09.21v6.8a.29.29,0,0,1-.09.22.29.29,0,0,1-.21.08.28.28,0,0,1-.3-.3V18a2.15,2.15,0,0,1-.75.78,2,2,0,0,1-1.09.32,2.18,2.18,0,0,1-1.2-.34,2.46,2.46,0,0,1-.84-1,3.16,3.16,0,0,1,0-2.73,2.43,2.43,0,0,1,.84-.95A2.18,2.18,0,0,1,36,13.8a2.08,2.08,0,0,1,1.09.3,2,2,0,0,1,.76.76V11.93a.3.3,0,0,1,.08-.21.29.29,0,0,1,.22-.09A.26.26,0,0,1,38.31,11.72ZM37,18.3a1.76,1.76,0,0,0,.65-.75,2.45,2.45,0,0,0,.24-1.09,2.37,2.37,0,0,0-.24-1.07,1.76,1.76,0,0,0-.65-.75,1.57,1.57,0,0,0-.93-.28,1.62,1.62,0,0,0-.94.28,1.91,1.91,0,0,0-.65.75,2.63,2.63,0,0,0,0,2.15,2,2,0,0,0,.65.76,1.69,1.69,0,0,0,.94.27A1.64,1.64,0,0,0,37,18.3Z"/><path class="cls-4" d="M44.33,14a.31.31,0,0,1,.09.22v4.5a.29.29,0,0,1-.09.22.29.29,0,0,1-.21.08.28.28,0,0,1-.3-.3v-.67a2.18,2.18,0,0,1-.75.76,2,2,0,0,1-1.09.31,2.12,2.12,0,0,1-1.21-.35,2.46,2.46,0,0,1-.84-1,3,3,0,0,1-.3-1.37,2.87,2.87,0,0,1,.31-1.36,2.43,2.43,0,0,1,.84-.95A2.26,2.26,0,0,1,42,13.8a2.18,2.18,0,0,1,1.1.29,2,2,0,0,1,.75.76v-.62A.35.35,0,0,1,43.9,14a.29.29,0,0,1,.22-.09A.26.26,0,0,1,44.33,14ZM43,18.3a1.85,1.85,0,0,0,.65-.76,2.45,2.45,0,0,0,.24-1.09,2.36,2.36,0,0,0-.24-1.06,1.76,1.76,0,0,0-.65-.75,1.57,1.57,0,0,0-.93-.28,1.69,1.69,0,0,0-.94.27,1.91,1.91,0,0,0-.65.75,2.44,2.44,0,0,0-.23,1.07,2.59,2.59,0,0,0,.23,1.09,1.91,1.91,0,0,0,.64.76,1.73,1.73,0,0,0,.95.27A1.64,1.64,0,0,0,43,18.3Z"/></g></g></g></g></g></svg>