<svg xmlns="http://www.w3.org/2000/svg" width="17.588" height="16.033" viewBox="0 0 17.588 16.033"><defs><style>.a{fill:#777;}</style></defs><g transform="translate(0 0)"><g transform="translate(9.604)"><path class="a" d="M6089.234,316.056h-1.71a.855.855,0,1,1,0-1.71h1.617v-8.24l-2.321-2.527h-3.1a.855.855,0,0,1,0-1.71h3.138a1.622,1.622,0,0,1,1.191.523l2.374,2.584a1.616,1.616,0,0,1,.426,1.094v8.369A1.619,1.619,0,0,1,6089.234,316.056Zm-2.373-12.478h0Z" transform="translate(-6082.868 -301.868)"/></g><g transform="translate(0 1.845)"><path class="a" d="M6033.074,327.576h-8.553a1.619,1.619,0,0,1-1.617-1.618V315.005a1.619,1.619,0,0,1,1.617-1.617h6.179a1.621,1.621,0,0,1,1.191.523l2,2.177a.855.855,0,0,1-1.26,1.157l-1.973-2.147h-6.045v10.767h8.367v-.318a.855.855,0,0,1,1.711,0v.411A1.62,1.62,0,0,1,6033.074,327.576Z" transform="translate(-6022.904 -313.388)"/></g><g transform="translate(4.199 6.879)"><g transform="translate(0 2.033)"><path class="a" d="M6057.72,358.839h-7.933a.665.665,0,0,1,0-1.33h7.933a.665.665,0,0,1,0,1.33Z" transform="translate(-6049.122 -357.509)"/></g><g transform="translate(6.334)"><path class="a" d="M6089.331,350.211a.665.665,0,0,1-.47-1.136l1.563-1.563-1.562-1.563a.665.665,0,0,1,.939-.941l2.034,2.033a.664.664,0,0,1,0,.941l-2.034,2.033A.662.662,0,0,1,6089.331,350.211Z" transform="translate(-6088.667 -344.814)"/></g></g></g></svg>