<svg xmlns="http://www.w3.org/2000/svg" width="14.827" height="13.188" viewBox="0 0 14.827 13.188"><defs><style>.a{fill:#e1e1e1;}</style></defs><path class="a" d="M8.163,0A6.622,6.622,0,0,0,1.517,6.593H.418a.413.413,0,0,0-.286.714L1.841,8.915a.415.415,0,0,0,.577-.005L4.065,7.3a.413.413,0,0,0-.291-.708H3a.2.2,0,0,1-.2-.213,5.593,5.593,0,0,1,5.367-5.22,5.59,5.59,0,0,1,5.493,5.433,5.4,5.4,0,0,1-5.328,5.346,5.9,5.9,0,0,1-3.5-1.226.656.656,0,0,0-.851.049h0a.655.655,0,0,0,.049.986,6.686,6.686,0,0,0,9.42-1.139,6.528,6.528,0,0,0,.818-6.664A6.675,6.675,0,0,0,8.163,0Z" transform="translate(-0.001 0)"/></svg>