<svg xmlns="http://www.w3.org/2000/svg" viewBox="0 0 12.72 14.31"><defs><style>.cls-1{fill:#dbdbdb;}</style></defs><g id="Camada_2" data-name="Camada 2"><g id="Camada_1-2" data-name="Camada 1"><g id="Grupo_820" data-name="Grupo 820"><g id="Caminho_34" data-name="Caminho 34"><path class="cls-1" d="M12,14.31a.7.7,0,0,1-.7-.7v-1.5A2.32,2.32,0,0,0,9,9.79H3.72A2.32,2.32,0,0,0,1.4,12.11v1.5a.7.7,0,0,1-.7.7.7.7,0,0,1-.7-.7v-1.5A3.72,3.72,0,0,1,3.72,8.39H9a3.73,3.73,0,0,1,3.72,3.72v1.5A.7.7,0,0,1,12,14.31Z"/></g><g id="Caminho_35" data-name="Caminho 35"><path class="cls-1" d="M6.36,7.44a3.72,3.72,0,1,1,3.72-3.72A3.73,3.73,0,0,1,6.36,7.44Zm0-6A2.32,2.32,0,1,0,8.68,3.72,2.32,2.32,0,0,0,6.36,1.4Z"/></g></g></g></g></svg>