<svg xmlns="http://www.w3.org/2000/svg" width="14.827" height="13.424" viewBox="0 0 14.827 13.424"><defs><style>.a,.b{fill:#e1e1e1;}.a{font-size:5px;font-family:Quicksand-Bold, Quicksand;font-weight:700;}</style></defs><text class="a" transform="translate(6.039 8.072)"><tspan x="0" y="0">30</tspan></text><path class="b" d="M8.163,0A6.681,6.681,0,0,0,1.517,6.711H.418a.422.422,0,0,0-.286.727L1.841,9.074a.41.41,0,0,0,.577-.006L4.065,7.432a.422.422,0,0,0-.291-.721H3A.2.2,0,0,1,2.8,6.5,5.64,5.64,0,0,1,8.163,1.181a5.64,5.64,0,0,1,5.493,5.53,5.449,5.449,0,0,1-5.328,5.441,5.832,5.832,0,0,1-3.5-1.248.648.648,0,0,0-.851.05h0a.674.674,0,0,0,.049,1,6.607,6.607,0,0,0,9.42-1.159,6.742,6.742,0,0,0,.818-6.783A6.669,6.669,0,0,0,8.163,0Z" transform="translate(-0.001)"/></svg>