<svg xmlns="http://www.w3.org/2000/svg" viewBox="0 0 15.56 15.56"><defs><style>.cls-1{fill:none;}.cls-2{fill:#c7c7c7;}</style></defs><g id="Camada_2" data-name="Camada 2"><g id="Camada_1-2" data-name="Camada 1"><rect class="cls-1" width="15.56" height="15.56"/><path class="cls-2" d="M13.51,1.24H8.92a2.06,2.06,0,0,0-2,1.68L6.39,5.63l-.1,0H.56a.56.56,0,1,0,0,1.11H6.18L5.76,9a.55.55,0,0,0-.29-.09H3A.56.56,0,0,0,3,10H5.47l.1,0-.36,1.91a2.4,2.4,0,0,0,0,.37,2.06,2.06,0,0,0,2.06,2.06h4.58a2.07,2.07,0,0,0,2-1.68l1.68-9a2.31,2.31,0,0,0,0-.37A2.05,2.05,0,0,0,13.51,1.24Zm.92,2.23-1.68,9a.94.94,0,0,1-.93.76H7.24a.94.94,0,0,1-.94-.94.86.86,0,0,1,0-.16L8,3.12a.93.93,0,0,1,.92-.76h4.59a.94.94,0,0,1,.94.94A1,1,0,0,1,14.43,3.47Z"/><path class="cls-2" d="M10,10.68a.56.56,0,0,0-.61-.12.55.55,0,0,0-.3.3.54.54,0,0,0-.05.21.6.6,0,0,0,.17.4.51.51,0,0,0,.39.16.78.78,0,0,0,.22,0,.75.75,0,0,0,.18-.13.59.59,0,0,0,.16-.4.52.52,0,0,0,0-.21A.44.44,0,0,0,10,10.68Z"/></g></g></svg>